<?xml version="1.0" standalone="no"?>
<!DOCTYPE svg PUBLIC "-//W3C//DTD SVG 20010904//EN"
 "http://www.w3.org/TR/2001/REC-SVG-20010904/DTD/svg10.dtd">
<svg version="1.0" xmlns="http://www.w3.org/2000/svg"
 width="1024.000000pt" height="1024.000000pt" viewBox="0 0 1024.000000 1024.000000"
 preserveAspectRatio="xMidYMid meet">

<g transform="translate(0.000000,1024.000000) scale(0.100000,-0.100000)"
fill="#000000" stroke="none">
<path d="M5060 9303 c-18 -15 -46 -45 -61 -68 -16 -22 -68 -74 -116 -115 -111
-95 -135 -139 -126 -225 9 -93 39 -162 97 -223 56 -59 92 -82 131 -82 14 0 25
-1 25 -3 0 -1 -25 -29 -55 -62 l-55 -59 -112 -13 c-156 -17 -161 -22 -170
-149 -4 -54 -5 -115 -2 -134 l5 -35 -69 -28 c-98 -39 -144 -72 -254 -184 -163
-165 -200 -218 -306 -428 -114 -225 -157 -423 -172 -789 -12 -292 -17 -382
-35 -596 -27 -323 -38 -558 -33 -782 l4 -227 -56 -5 c-30 -3 -152 -8 -271 -12
-239 -7 -259 -3 -259 45 0 42 18 51 101 48 82 -2 123 14 138 56 19 48 -47 101
-116 94 -55 -6 -129 -66 -167 -137 -26 -47 -28 -59 -24 -126 4 -55 13 -89 36
-137 39 -78 153 -197 225 -234 52 -26 310 -103 346 -103 10 0 23 -6 29 -13 8
-9 11 -214 10 -693 0 -373 0 -835 1 -1026 1 -192 -1 -348 -3 -348 -6 0 -129
79 -252 161 -100 66 -224 188 -328 323 -26 33 -57 67 -69 75 -45 30 -127 104
-127 114 0 5 -14 32 -30 59 -91 147 -346 778 -398 983 -24 94 -41 175 -36 175
2 0 11 -14 19 -31 9 -17 19 -28 22 -25 3 3 -6 25 -20 48 -60 103 -95 322 -135
863 -4 50 -2 198 4 330 l11 240 66 255 c36 140 77 286 91 324 28 73 129 279
169 343 13 21 36 61 51 88 23 42 24 45 4 20 -97 -125 -247 -408 -297 -561 -51
-158 -134 -533 -127 -579 5 -28 3 -36 -4 -25 -7 12 -9 8 -9 -15 1 -16 5 -43 9
-60 7 -28 8 -27 10 15 l2 45 10 -34 c6 -22 6 -43 -1 -60 -5 -14 -12 -60 -15
-101 -3 -41 -8 -100 -11 -130 -8 -70 20 -548 40 -660 8 -47 23 -131 34 -186
11 -56 21 -130 22 -165 2 -89 11 -119 96 -323 120 -290 147 -352 221 -506 107
-223 158 -301 274 -420 57 -58 145 -152 196 -210 52 -58 121 -129 155 -158 78
-67 217 -162 294 -200 l59 -30 3 -75 2 -76 -36 -3 c-46 -4 -50 -22 -5 -26 19
-2 38 -9 42 -15 9 -15 10 -77 1 -77 -3 0 -46 12 -95 27 -48 14 -91 23 -95 20
-19 -20 63 -59 155 -73 50 -8 62 -22 37 -40 -17 -13 -17 -15 -2 -32 9 -10 17
-28 17 -40 0 -19 -5 -17 -62 19 -185 117 -335 209 -435 268 -62 36 -154 95
-205 131 -89 62 -258 218 -291 269 -20 29 -22 27 -30 -22 -6 -36 -3 -40 72
-115 93 -91 205 -174 322 -236 59 -32 90 -54 98 -73 11 -25 14 -26 25 -11 11
15 22 9 99 -52 48 -37 153 -103 233 -146 167 -91 184 -104 184 -144 l0 -29
-77 35 c-43 20 -89 41 -103 47 -37 16 -225 134 -397 250 -84 56 -191 127 -239
157 -87 56 -253 183 -267 206 -4 7 -37 36 -73 65 -72 57 -141 138 -236 277
-35 51 -88 129 -119 174 -163 238 -319 541 -359 693 -10 39 -27 86 -38 105
-11 19 -30 64 -42 100 -114 340 -176 567 -205 750 -19 121 -38 226 -59 325
-25 123 -29 250 -11 406 17 152 17 334 0 334 -5 0 -11 -16 -13 -35 -2 -28 0
-32 8 -20 13 17 9 -48 -17 -275 -16 -148 -13 -419 7 -470 10 -26 31 -138 32
-165 1 -68 79 -399 138 -585 22 -69 40 -133 40 -140 0 -8 6 -15 14 -15 17 0
29 -134 20 -223 -7 -70 2 -85 66 -106 31 -10 38 -18 49 -59 22 -74 97 -248
151 -350 59 -108 200 -325 262 -399 24 -28 63 -86 88 -128 25 -42 62 -104 82
-138 20 -34 47 -79 60 -100 22 -38 200 -197 219 -197 5 0 -19 27 -53 59 -63
59 -63 59 -44 80 l19 21 17 -27 c29 -48 152 -156 230 -202 41 -25 134 -85 205
-135 72 -49 148 -102 170 -116 22 -14 88 -58 147 -97 59 -40 111 -73 116 -73
5 0 17 -9 28 -21 23 -25 66 -49 90 -49 37 0 119 -119 97 -141 -14 -14 -20 -11
-185 62 -129 57 -204 107 -278 184 -30 32 -107 91 -170 133 -63 41 -155 107
-205 146 -140 111 -166 129 -173 121 -4 -4 9 -19 28 -33 19 -14 74 -65 121
-112 112 -113 160 -151 237 -189 35 -18 94 -62 135 -100 45 -43 108 -88 167
-121 52 -29 107 -61 123 -72 15 -11 52 -29 82 -42 l55 -22 -51 -50 c-38 -36
-53 -45 -57 -34 -6 18 -39 49 -116 113 -107 87 -92 42 19 -56 36 -32 65 -63
65 -69 0 -6 -15 -40 -34 -77 -91 -179 -60 -322 76 -355 75 -18 178 47 163 103
-4 14 -9 49 -12 76 -5 50 -4 51 29 62 45 17 127 9 176 -16 23 -12 47 -21 54
-21 17 1 -149 79 -181 86 -20 4 -23 3 -11 -5 12 -8 5 -11 -27 -11 -39 0 -43 2
-43 24 0 18 7 26 28 31 15 3 51 17 80 31 l53 25 312 -2 c172 -2 368 -3 437 -2
l126 1 21 -37 c12 -20 44 -67 72 -105 28 -38 51 -74 51 -81 0 -26 74 -252 97
-300 37 -71 74 -115 100 -115 37 0 90 57 156 169 191 319 197 332 212 419 4
27 14 46 27 53 28 15 290 32 418 27 98 -4 111 -7 196 -46 50 -23 105 -45 122
-48 22 -4 32 -12 32 -24 0 -14 -10 -19 -42 -22 -50 -6 -61 -1 -150 63 -38 27
-68 46 -68 41 0 -14 52 -58 110 -93 l54 -33 -37 -16 c-36 -15 -49 -30 -24 -30
6 0 36 11 65 25 30 14 60 25 68 25 19 0 29 -66 17 -121 -7 -35 -6 -51 4 -65
23 -32 67 -54 107 -54 55 0 101 34 133 98 45 93 21 209 -62 297 -19 21 -35 42
-35 46 0 5 22 20 49 34 27 13 52 29 56 35 4 6 37 26 73 44 37 19 78 43 92 55
l25 22 -25 -7 c-14 -3 -52 -23 -84 -43 -73 -45 -176 -101 -184 -101 -4 0 -24
25 -46 56 l-38 55 23 25 c13 14 31 46 39 72 14 44 19 48 120 103 184 100 417
249 497 318 194 165 489 475 532 558 11 22 43 60 71 83 48 40 88 96 76 107 -3
3 -16 -7 -28 -22 -76 -90 -77 -91 -89 -71 -10 16 -14 14 -36 -25 -43 -77 -127
-169 -360 -401 -176 -173 -250 -240 -319 -284 -49 -31 -127 -82 -174 -114 -90
-60 -267 -150 -295 -150 -14 0 -16 6 -10 37 8 46 12 53 30 53 7 0 49 22 92 48
43 27 107 63 143 81 135 68 345 233 436 341 14 16 33 30 43 30 17 0 273 253
310 307 52 77 9 42 -158 -127 -140 -141 -181 -178 -188 -166 -7 12 -27 -3 -98
-71 -50 -47 -121 -109 -160 -138 -54 -41 -295 -196 -432 -279 -10 -6 -13 29
-13 162 l0 168 66 50 c37 27 134 95 217 152 211 143 248 173 366 287 96 93
145 155 122 155 -5 0 -12 -8 -15 -18 -9 -26 -168 -187 -251 -253 -38 -31 -135
-99 -215 -151 -80 -53 -176 -119 -214 -148 -37 -28 -71 -49 -73 -46 -3 3 0
159 6 348 33 1004 37 1304 19 1358 -26 78 0 326 40 387 4 7 39 20 78 29 38 9
96 22 129 30 94 22 203 80 261 139 32 33 68 88 99 149 59 116 70 191 39 277
-57 158 -264 220 -224 66 21 -79 32 -87 108 -87 40 0 73 -5 80 -12 7 -7 12
-34 12 -61 l0 -49 -77 7 c-107 9 -403 45 -431 52 -20 5 -22 9 -15 37 10 40 9
258 -4 941 -10 472 -14 566 -32 665 -80 461 -155 671 -332 930 -141 207 -289
340 -461 415 -59 26 -67 32 -61 50 14 37 7 91 -14 121 -15 21 -23 49 -25 89
-4 79 -22 91 -159 108 -58 8 -113 18 -121 23 -21 12 -110 95 -106 98 2 2 26
15 55 31 59 31 104 73 141 128 14 21 28 34 31 29 7 -10 140 -36 147 -29 4 3
25 -4 47 -16 26 -13 63 -23 94 -24 51 -1 143 -36 143 -53 0 -5 -11 -18 -25
-28 l-26 -20 -62 25 c-34 14 -89 31 -122 38 -33 7 -85 20 -116 29 -37 11 -64
14 -79 8 -22 -8 -20 -10 20 -26 24 -10 65 -19 90 -21 53 -4 119 -19 170 -40
57 -22 194 -64 199 -60 2 2 -15 12 -38 21 -22 9 -41 19 -41 22 0 3 15 18 33
33 l32 27 -55 26 c-30 14 -62 30 -70 35 -13 8 -129 34 -200 45 -80 13 -149 30
-145 37 3 4 6 43 6 87 2 68 -2 86 -23 125 l-25 45 68 -19 c38 -10 72 -19 75
-19 4 0 1 -7 -6 -15 -10 -11 -10 -19 -2 -27 14 -14 76 -2 92 17 7 8 23 15 37
15 30 0 114 -20 128 -30 16 -13 125 -23 125 -13 0 16 -73 43 -115 42 -22 0
-59 6 -82 15 -48 17 -282 66 -317 66 -32 0 -139 82 -178 136 -84 116 -122 135
-178 87z m90 -314 c62 -13 120 -63 120 -103 0 -44 -27 -95 -55 -106 -15 -6
-30 -8 -35 -5 -4 2 -45 7 -91 10 -75 4 -87 7 -106 30 -13 14 -23 39 -23 54 0
26 29 75 55 93 6 5 5 8 -4 8 -23 0 -91 -76 -91 -102 0 -14 14 -44 31 -67 23
-33 26 -40 10 -32 -28 15 -61 60 -61 83 0 64 94 147 167 148 18 0 55 -5 83
-11z m479 -754 c13 -13 -52 -15 -487 -17 -471 -3 -502 -2 -502 14 0 16 22 18
278 20 467 5 695 -1 711 -17z m117 -421 c170 -85 324 -268 419 -497 120 -291
173 -534 196 -900 13 -207 26 -946 19 -1043 l-6 -69 -6 50 c-4 28 -10 131 -13
230 -20 623 -34 814 -80 1123 -56 365 -112 547 -234 752 -109 184 -230 300
-402 386 -27 14 -49 27 -49 29 0 8 85 -26 156 -61z m-796 46 c0 -5 -13 -16
-29 -25 -44 -22 -75 -68 -125 -185 -62 -146 -99 -259 -145 -445 -107 -437
-131 -648 -131 -1182 0 -298 -1 -322 -17 -327 -22 -6 -142 -26 -161 -26 -21 0
-11 880 12 1080 57 491 120 717 243 862 26 31 85 86 130 122 45 36 85 71 89
77 7 13 103 59 122 59 6 0 12 -4 12 -10z m255 -50 c54 -12 76 -41 114 -147 61
-168 91 -312 135 -648 14 -104 28 -201 31 -215 4 -14 12 -264 19 -556 7 -292
17 -537 21 -544 6 -10 2 -11 -20 -6 -54 14 -95 35 -95 49 0 19 -25 28 -39 14
-16 -16 -24 -2 -17 28 7 27 25 32 56 13 25 -16 35 -5 21 21 -14 26 -49 35 -82
22 -24 -9 -29 -5 -64 42 -60 79 -121 203 -151 305 -15 50 -31 92 -36 92 -31 0
53 -332 126 -502 l16 -38 -185 0 -184 0 27 48 c26 44 122 315 122 344 0 7 -18
-15 -40 -49 -50 -76 -119 -139 -230 -211 -47 -30 -98 -66 -115 -80 l-30 -25
35 6 c19 3 56 13 82 23 49 19 62 17 53 -9 -8 -19 -134 -67 -177 -67 l-31 0 7
268 c12 466 49 888 97 1102 82 370 175 617 261 692 l43 38 95 0 c52 0 113 -5
135 -10z m615 -166 c85 -82 142 -174 214 -350 88 -216 148 -456 187 -753 20
-149 44 -650 37 -750 -3 -31 4 -150 14 -266 10 -115 18 -250 18 -298 l0 -88
-37 6 c-21 4 -68 15 -105 26 -62 18 -70 23 -89 61 -12 23 -24 67 -26 98 l-5
57 63 23 c35 13 68 26 72 30 12 10 -18 31 -51 35 -16 2 -93 29 -170 59 -78 31
-146 56 -151 56 -11 0 -19 28 -13 51 3 15 9 14 45 -6 23 -13 76 -33 117 -45
41 -12 82 -30 90 -40 18 -21 79 -54 87 -46 10 9 -7 55 -26 73 -11 10 -48 33
-83 51 -108 55 -102 17 -94 581 7 451 6 500 -14 686 -33 325 -59 432 -141 583
-70 130 -159 302 -159 308 0 3 33 -12 73 -33 43 -23 102 -67 147 -109z m-1376
109 c-3 -10 -32 -47 -66 -83 -76 -82 -173 -271 -222 -434 -63 -207 -99 -579
-145 -1511 -8 -163 -9 -148 -6 150 3 369 28 932 50 1131 9 87 25 165 46 230
65 204 158 384 199 384 11 0 20 4 20 9 0 7 119 141 126 141 1 0 0 -8 -2 -17z
m-6 -160 c-78 -89 -143 -423 -178 -913 -10 -135 -29 -770 -30 -978 0 -79 -3
-94 -17 -99 -25 -9 -33 -23 -33 -57 0 -23 3 -27 18 -20 9 4 73 18 142 31 69
13 139 28 155 34 17 6 77 22 134 35 96 23 104 24 115 8 11 -15 48 -16 404 -15
270 2 392 -1 392 -8 0 -7 -22 -11 -52 -11 -181 0 -870 -22 -953 -30 -55 -6
-152 -20 -215 -31 -105 -19 -120 -24 -169 -62 -54 -42 -55 -57 -1 -38 57 19
62 10 58 -101 -2 -79 -6 -102 -20 -112 -20 -15 -174 -40 -188 -31 -6 4 -10 56
-10 121 0 104 2 120 24 157 52 89 58 149 105 1017 26 471 71 721 170 934 30
65 50 92 97 134 60 53 79 65 52 35z m1383 -373 c38 -176 51 -682 27 -1015 -11
-144 -14 -160 -18 -105 -3 42 -8 -8 -12 -140 -6 -198 -17 -284 -30 -248 -4 9
-9 283 -13 609 -6 628 -14 802 -45 1044 -11 83 -20 155 -19 160 1 26 93 -227
110 -305z m-1277 -1849 c-4 -14 -8 -37 -9 -51 -1 -14 -3 -28 -4 -32 0 -5 -18
-8 -40 -8 -21 0 -74 -9 -117 -20 -102 -25 -110 -25 -50 6 32 17 57 24 73 19
16 -4 22 -2 18 5 -3 5 -17 10 -30 10 -20 0 -25 7 -32 43 -10 49 -2 54 80 56
51 1 55 -5 37 -55 -18 -46 -1 -40 19 7 24 54 29 59 48 52 10 -4 12 -13 7 -32z
m941 17 c2 -7 5 -39 8 -72 l4 -59 -91 7 c-50 3 -263 9 -473 12 -211 4 -383 8
-383 9 0 2 12 28 26 59 l25 56 440 0 c343 0 441 -3 444 -12z m335 -34 c0 -16
43 -47 92 -67 l37 -16 -19 37 c-24 44 -27 92 -5 92 8 0 15 -8 15 -18 0 -38 34
-118 59 -139 37 -31 24 -34 -39 -11 -30 11 -82 27 -115 36 -33 8 -61 16 -63
18 -2 1 0 28 4 60 6 52 8 56 20 39 8 -10 14 -24 14 -31z m70 -535 c85 -6 225
-17 310 -25 85 -8 197 -18 248 -21 50 -3 92 -10 92 -14 0 -5 -6 -9 -13 -9 -8
0 -24 -8 -35 -19 -22 -18 -21 -18 64 -41 47 -12 83 -24 80 -27 -3 -3 -38 -12
-78 -20 -81 -16 -136 -14 -453 18 -110 11 -253 24 -319 29 -113 10 -892 30
-1869 49 -252 5 -461 12 -464 14 -7 8 86 16 257 22 189 7 712 34 870 45 161
11 1123 10 1310 -1z m-1792 -630 c44 -13 49 -18 32 -35 -6 -6 -11 -310 -12
-839 -2 -662 0 -838 11 -868 15 -44 15 -44 -18 -49 -23 -3 -25 1 -37 66 -24
125 -25 113 -29 -246 -1 -82 0 -148 2 -148 7 0 25 56 32 100 4 29 12 46 22 48
18 3 29 -40 29 -120 l0 -48 -49 0 c-35 0 -51 4 -55 16 -3 9 -6 138 -6 287 0
150 -5 366 -10 481 -5 115 -14 448 -21 740 -6 292 -14 560 -19 596 -4 36 -6
68 -4 72 2 3 23 -4 47 -17 23 -13 61 -29 85 -36z m772 16 c0 -47 -27 -185 -56
-287 -36 -126 -93 -265 -168 -417 -37 -73 -81 -174 -98 -224 -28 -85 -31 -108
-40 -297 -5 -113 -6 -230 -2 -260 9 -78 39 -151 83 -201 45 -53 91 -120 91
-134 0 -11 -349 -19 -410 -10 l-35 6 -1 862 c0 474 -2 884 -4 910 -2 26 2 53
7 58 7 7 110 14 280 18 147 3 287 7 311 7 41 2 42 1 42 -31z m555 -117 c8
-180 11 -1705 3 -1713 -3 -3 -62 -4 -130 -3 l-125 3 39 64 c75 123 80 151 91
481 13 374 13 374 -139 679 -139 279 -173 382 -198 594 l-6 47 229 0 229 0 7
-152z m724 136 c2 -2 6 -491 9 -1087 l5 -1084 -209 -5 c-115 -3 -211 -4 -214
-1 -3 2 -3 48 -2 101 3 89 6 99 31 128 67 75 125 270 141 469 11 143 10 405
-2 405 -5 0 -8 -13 -8 -28 0 -26 -14 -88 -84 -388 -25 -107 -45 -158 -61 -155
-7 1 -10 278 -10 809 0 444 -4 813 -8 820 -19 28 6 32 206 25 111 -3 204 -7
206 -9z m155 -947 c-1 -923 -8 -1256 -25 -1226 -4 8 -11 492 -15 1075 -6 1079
-5 1139 29 1105 9 -9 12 -228 11 -954z m-1246 248 c116 -231 145 -349 123
-502 -14 -92 -60 -225 -93 -270 -28 -36 -66 53 -89 208 l-12 84 -13 -65 c-16
-75 -54 -155 -74 -155 -8 0 -23 15 -33 33 -27 45 -33 148 -17 278 7 58 10 107
8 109 -10 10 -78 -266 -88 -352 -12 -108 -17 -125 -39 -121 -38 7 -91 182 -91
302 0 84 25 160 117 351 82 171 110 231 155 335 l20 45 22 -60 c13 -33 59
-132 104 -220z m372 -1382 l0 -98 -283 1 c-155 0 -288 1 -294 2 -57 8 95 154
188 180 19 6 114 11 212 11 l177 1 0 -97z m-654 60 c-14 -59 -60 -136 -86
-143 -14 -3 -125 -4 -247 -2 l-223 4 0 32 c0 17 3 55 6 84 l7 52 274 0 275 0
-6 -27z m14 -117 c-17 -25 -38 -46 -46 -46 -11 0 -2 16 26 50 52 62 64 59 20
-4z m1540 -306 c0 -6 -11 -22 -25 -35 l-24 -25 -314 0 c-329 0 -327 0 -327 41
0 5 126 9 303 10 166 1 316 5 332 9 44 11 55 11 55 0z m-813 -30 c8 -44 8 -44
-454 -43 -241 1 -526 6 -633 12 -107 6 -257 13 -333 17 -76 3 -135 9 -132 13
10 9 506 17 1065 16 423 0 485 -2 487 -15z m-434 -234 c10 -25 37 -71 60 -103
l42 -58 7 55 c4 30 8 74 9 98 l3 42 88 0 88 0 -17 -27 c-27 -44 -74 -105 -110
-143 -18 -19 -39 -44 -47 -55 -13 -18 -17 -17 -82 39 -62 51 -163 169 -164
189 0 4 24 7 53 7 l52 0 18 -44z"/>
<path d="M4862 3280 c0 -14 2 -19 5 -12 2 6 2 18 0 25 -3 6 -5 1 -5 -13z"/>
<path d="M4602 9130 c0 -14 2 -19 5 -12 2 6 2 18 0 25 -3 6 -5 1 -5 -13z"/>
<path d="M4770 9120 c0 -5 5 -10 10 -10 6 0 10 5 10 10 0 6 -4 10 -10 10 -5 0
-10 -4 -10 -10z"/>
<path d="M4218 9028 l3 -83 -33 -23 c-147 -102 -201 -133 -246 -138 -26 -4
-51 -12 -57 -18 -5 -6 -41 -24 -80 -39 -67 -28 -290 -145 -347 -184 -199 -133
-418 -315 -634 -525 -285 -278 -494 -520 -494 -572 0 -37 17 -41 34 -8 18 34
85 119 174 220 64 72 65 73 86 55 21 -18 21 -18 4 2 -17 20 -14 24 115 151
162 160 314 298 471 430 181 151 196 162 268 199 37 19 94 59 126 88 61 54
163 104 329 162 51 17 98 45 155 89 46 35 100 71 121 80 38 16 39 15 82 -14
52 -35 70 -37 86 -9 9 17 16 20 42 14 102 -22 152 -22 195 -2 44 22 58 45 20
32 -40 -13 -120 -17 -130 -7 -12 12 -110 5 -150 -10 -26 -10 -98 7 -98 23 0
24 349 77 418 63 29 -6 122 39 122 58 0 28 -506 -60 -547 -94 -10 -8 -13 -3
-13 19 0 46 -12 123 -19 123 -3 0 -5 -37 -3 -82z"/>
<path d="M5760 9085 c0 -8 5 -15 10 -15 6 0 10 7 10 15 0 8 -4 15 -10 15 -5 0
-10 -7 -10 -15z"/>
<path d="M4066 8977 c-21 -17 -26 -26 -17 -32 8 -4 21 1 33 13 31 30 18 46
-16 19z"/>
<path d="M5945 8980 c-8 -13 3 -30 19 -30 8 0 19 -7 26 -15 9 -10 16 -12 20
-6 4 7 66 -14 165 -54 87 -36 161 -63 164 -59 7 7 -37 42 -64 50 -40 12 -201
78 -222 92 -13 8 -29 12 -36 9 -7 -3 -21 1 -32 9 -22 17 -32 17 -40 4z"/>
<path d="M5502 8947 c7 -21 52 -36 139 -46 46 -5 96 -14 111 -20 15 -6 34 -8
42 -5 8 3 29 -2 48 -12 47 -24 273 -94 335 -104 29 -5 70 -19 92 -32 191 -112
313 -191 363 -236 35 -31 103 -74 167 -107 165 -82 326 -209 543 -427 196
-198 294 -311 359 -418 22 -36 53 -83 69 -105 17 -22 45 -67 63 -100 19 -33
53 -91 77 -129 47 -77 206 -410 275 -576 75 -181 130 -423 138 -605 l4 -90
-14 55 c-7 30 -24 110 -38 177 -13 67 -36 155 -50 195 -14 40 -35 102 -46 137
-49 153 -283 644 -364 766 -85 125 -306 377 -313 356 -5 -16 34 -78 83 -131
50 -55 169 -213 220 -293 74 -118 259 -539 330 -752 20 -60 49 -175 65 -255
29 -147 73 -357 109 -530 27 -125 36 -334 22 -490 -6 -69 -15 -181 -21 -250
-26 -308 -75 -609 -136 -850 -73 -282 -169 -543 -234 -631 -22 -30 -47 -71
-56 -91 -18 -42 -28 -47 -43 -21 -14 26 -26 7 -26 -40 0 -30 -9 -55 -31 -87
-17 -25 -39 -61 -48 -80 -19 -39 -22 -42 67 73 28 38 72 92 95 120 114 135
224 381 317 709 65 227 77 286 110 546 72 550 81 876 31 1172 -24 141 -25 189
-7 207 25 26 21 184 -8 306 -13 54 -22 100 -19 102 2 2 17 -44 32 -104 30
-119 45 -251 46 -406 0 -55 4 -138 10 -185 34 -300 30 -654 -15 -1116 -30
-309 -70 -500 -156 -735 -120 -328 -423 -842 -588 -996 -54 -50 -64 -76 -22
-53 30 15 44 4 29 -23 -23 -44 -134 -159 -205 -213 -40 -30 -73 -59 -73 -64 0
-15 -233 -205 -306 -250 -38 -23 -84 -52 -102 -65 -18 -13 -39 -22 -47 -19 -7
3 -22 -8 -34 -25 -12 -16 -32 -33 -44 -37 -12 -4 -35 -17 -50 -30 -16 -13 -41
-27 -55 -31 -15 -3 -40 -16 -57 -28 -16 -13 -55 -35 -85 -50 -78 -39 -160 -93
-160 -105 0 -23 35 -22 79 1 76 40 338 216 344 232 3 7 31 26 64 41 32 15 70
39 84 53 23 21 30 23 49 13 14 -7 25 -8 29 -3 3 5 53 43 111 84 58 41 126 95
152 121 29 30 52 46 62 42 24 -9 52 12 103 79 26 34 64 78 84 98 45 45 96 131
132 222 29 73 110 199 211 332 98 128 124 168 191 303 126 252 226 541 280
804 3 18 10 25 19 22 11 -4 15 19 19 118 3 68 15 231 27 363 27 294 24 618 -8
830 -11 72 -23 184 -26 250 -18 320 -37 430 -92 521 -19 31 -39 75 -45 98 -38
146 -123 339 -266 611 -93 174 -143 254 -226 358 -30 37 -78 116 -108 175
l-52 107 -236 236 c-130 130 -276 266 -324 303 -75 57 -310 218 -366 251 -9 6
-31 20 -48 33 -17 12 -34 22 -38 22 -4 0 -36 20 -71 45 -34 25 -66 45 -71 45
-4 0 -63 33 -130 74 -67 41 -137 77 -155 81 -62 13 -234 65 -304 91 -38 14
-89 30 -115 34 -25 5 -65 14 -89 20 -25 7 -65 9 -92 6 -32 -5 -59 -2 -83 9
-27 11 -35 11 -33 2z"/>
<path d="M6232 8940 c0 -14 2 -19 5 -12 2 6 2 18 0 25 -3 6 -5 1 -5 -13z"/>
<path d="M3920 8894 c-144 -49 -245 -91 -320 -133 -149 -83 -165 -93 -181
-107 -8 -8 -18 -14 -21 -14 -7 0 -108 -70 -250 -172 -289 -210 -632 -561 -925
-948 -49 -65 -113 -180 -113 -203 0 -9 9 -21 21 -28 20 -10 21 -9 14 19 -5 25
2 44 45 114 29 46 63 94 76 108 12 14 47 57 76 95 100 135 253 311 368 425
113 113 391 342 620 512 154 114 161 118 186 118 12 0 27 6 33 14 7 8 43 33
81 55 52 31 79 41 112 41 30 0 48 6 59 18 9 10 57 34 107 53 87 32 113 50 75
49 -10 -1 -38 -8 -63 -16z"/>
<path d="M4198 8864 c-17 -8 -28 -23 -28 -35 l0 -20 26 20 c15 11 30 18 35 15
5 -3 9 4 9 15 0 25 -6 25 -42 5z"/>
<path d="M4500 8851 c0 -12 -19 -31 -50 -51 -27 -18 -50 -36 -50 -41 0 -5 -43
-30 -95 -55 -52 -25 -95 -50 -95 -55 0 -12 -4 -13 73 19 37 16 77 38 90 49 12
11 58 46 101 78 67 50 77 60 60 66 -30 12 -34 10 -34 -10z"/>
<path d="M4677 8843 c-14 -13 -7 -43 11 -43 27 0 46 16 39 34 -6 16 -38 22
-50 9z"/>
<path d="M5583 8833 c-25 -10 -12 -23 23 -23 20 0 67 -9 104 -21 113 -34 129
-18 20 19 -92 31 -121 36 -147 25z"/>
<path d="M6355 8830 c-9 -15 15 -42 32 -36 7 3 13 0 13 -7 0 -7 47 -36 104
-64 69 -34 107 -59 111 -73 5 -15 14 -20 34 -18 19 1 49 -13 97 -47 121 -87
248 -168 294 -188 63 -28 324 -232 450 -352 58 -55 135 -126 171 -157 36 -31
99 -100 140 -154 41 -54 99 -125 130 -159 30 -33 78 -94 106 -135 28 -41 70
-93 94 -115 l42 -40 -35 45 c-19 25 -54 74 -78 110 -24 36 -68 94 -99 130 -31
36 -96 115 -144 177 -48 61 -106 126 -129 144 -24 18 -101 89 -171 157 -191
183 -310 273 -525 398 -46 26 -89 56 -96 66 -8 10 -32 29 -54 41 -22 12 -64
38 -94 58 -108 73 -155 101 -253 150 -55 28 -107 57 -117 65 -11 11 -18 12
-23 4z"/>
<path d="M5860 8777 c0 -3 16 -15 35 -27 26 -16 47 -21 78 -18 34 3 58 -4 130
-39 48 -24 93 -43 100 -43 22 0 52 -26 39 -34 -7 -4 -12 -14 -12 -22 0 -11 4
-12 19 -4 11 5 29 10 40 10 35 0 13 29 -31 40 -21 6 -56 27 -77 46 -58 52
-124 78 -180 70 -42 -5 -76 0 -123 19 -10 4 -18 5 -18 2z"/>
<path d="M4670 8756 c-30 -7 -73 -21 -95 -31 -40 -19 -49 -22 -72 -24 -20 -2
-15 -21 5 -21 9 0 51 13 93 30 42 16 95 32 118 36 22 4 41 10 41 15 0 12 -22
10 -90 -5z"/>
<path d="M6707 8764 c-7 -8 4 -44 14 -44 12 0 12 37 0 44 -4 3 -11 3 -14 0z"/>
<path d="M4179 8736 c-49 -17 -99 -54 -99 -72 0 -11 8 -9 33 9 28 21 71 41 87
39 11 -1 40 19 40 28 0 13 -17 12 -61 -4z"/>
<path d="M4727 8703 c-4 -3 -7 -15 -7 -25 0 -19 25 -24 49 -9 12 8 12 12 2 25
-14 17 -33 21 -44 9z"/>
<path d="M3420 8690 c0 -5 5 -10 10 -10 6 0 10 5 10 10 0 6 -4 10 -10 10 -5 0
-10 -4 -10 -10z"/>
<path d="M3852 8654 c-40 -19 -89 -45 -110 -59 -20 -14 -50 -25 -65 -25 -21 0
-28 -4 -24 -14 4 -9 -10 -21 -44 -34 -29 -13 -49 -27 -49 -36 0 -9 -4 -16 -10
-16 -5 0 -10 5 -10 10 0 20 -23 9 -100 -45 -42 -30 -89 -59 -103 -64 -34 -13
-54 -49 -32 -57 15 -6 33 4 165 96 38 27 73 44 84 42 11 -2 26 5 35 16 9 11
84 54 166 96 83 42 156 83 164 90 30 31 2 31 -67 0z"/>
<path d="M5998 8620 c42 -38 377 -220 404 -220 7 0 36 -15 63 -33 28 -18 75
-48 105 -66 30 -19 59 -39 65 -46 24 -30 245 -165 245 -150 0 16 -342 251
-432 296 -33 17 -70 31 -82 32 -11 1 -59 23 -106 49 -47 25 -112 60 -145 78
-33 18 -77 48 -98 66 -20 19 -43 34 -50 34 -6 -1 7 -18 31 -40z"/>
<path d="M4345 8644 c-65 -14 -106 -28 -116 -40 -20 -25 -3 -26 60 -4 33 11
81 20 106 20 33 0 45 4 45 15 0 15 -45 19 -95 9z"/>
<path d="M4128 8623 c-21 -9 -38 -22 -38 -29 0 -27 21 -24 57 10 41 39 38 42
-19 19z"/>
<path d="M6360 8613 c1 -18 90 -104 100 -98 6 4 20 -2 30 -12 35 -38 107 -93
158 -120 28 -16 108 -68 176 -116 69 -49 128 -88 131 -87 26 7 139 -97 371
-342 115 -121 222 -229 239 -241 34 -24 39 -32 -107 143 -130 155 -379 393
-505 483 -66 48 -125 87 -131 87 -5 0 -38 19 -73 42 -35 22 -100 63 -144 89
-44 26 -97 64 -117 83 -20 20 -43 36 -52 36 -8 0 -24 14 -36 30 -20 28 -40 40
-40 23z"/>
<path d="M5650 8573 c0 -13 100 -43 141 -42 29 1 24 4 -31 19 -36 10 -75 21
-87 25 -13 4 -23 3 -23 -2z"/>
<path d="M6520 8535 c33 -34 60 -45 60 -25 0 10 -69 60 -84 60 -6 0 5 -16 24
-35z"/>
<path d="M3824 8505 c-45 -38 -120 -81 -229 -134 -152 -73 -185 -94 -171 -108
6 -6 19 1 205 101 105 57 291 180 291 192 0 16 -39 -5 -96 -51z"/>
<path d="M3964 8546 c-33 -15 -50 -33 -40 -43 7 -7 96 39 96 49 0 12 -21 9
-56 -6z"/>
<path d="M5870 8519 c19 -12 39 -28 44 -36 10 -19 68 -43 98 -42 17 1 15 3
-11 11 -19 5 -59 27 -89 49 -31 21 -60 39 -66 39 -6 0 5 -10 24 -21z"/>
<path d="M5960 8531 c0 -8 99 -51 117 -51 3 0 94 -42 202 -92 144 -68 220
-110 286 -160 49 -38 94 -68 99 -68 16 0 -27 41 -93 87 -104 72 -557 293 -602
293 -5 0 -9 -4 -9 -9z"/>
<path d="M4005 8470 c-15 -16 -15 -20 -3 -20 8 0 23 9 33 20 15 16 15 20 3 20
-8 0 -23 -9 -33 -20z"/>
<path d="M3886 8425 c-11 -8 -33 -15 -49 -15 -16 0 -26 -4 -22 -10 3 -5 0 -10
-8 -10 -17 0 -137 -63 -197 -103 -44 -30 -221 -170 -309 -244 -41 -34 -81 -87
-81 -107 0 -14 31 15 62 59 28 37 184 174 286 248 66 49 187 113 248 130 58
17 110 42 119 57 9 15 -27 11 -49 -5z"/>
<path d="M3352 8268 c-96 -72 -111 -84 -114 -94 -2 -7 -91 -83 -198 -169 -181
-147 -370 -319 -370 -338 0 -4 -42 -57 -94 -117 -90 -104 -270 -356 -294 -412
-9 -22 -9 -28 1 -28 24 0 40 19 107 126 46 74 74 108 84 106 9 -2 16 4 16 13
0 33 135 216 227 308 45 45 169 153 299 258 154 126 234 200 234 218 0 9 32
42 70 74 39 31 70 62 70 67 0 14 -3 13 -38 -12z"/>
<path d="M6898 8109 c-2 -6 59 -75 137 -153 77 -78 150 -155 163 -170 12 -16
25 -26 28 -23 3 3 -13 25 -34 48 -96 105 -151 169 -206 237 -55 68 -80 85 -88
61z"/>
<path d="M7030 8031 c0 -6 35 -46 79 -89 43 -42 91 -96 106 -119 39 -60 52
-54 18 7 -40 72 -203 233 -203 201z"/>
<path d="M3120 7906 c-25 -32 -54 -70 -64 -84 -36 -45 0 -18 58 45 35 38 56
69 54 80 -3 13 -15 3 -48 -41z"/>
<path d="M6035 7937 c22 -8 96 -42 164 -76 68 -34 125 -60 127 -58 7 7 -264
137 -298 142 -31 5 -30 4 7 -8z"/>
<path d="M4128 7913 c7 -3 16 -2 19 1 4 3 -2 6 -13 5 -11 0 -14 -3 -6 -6z"/>
<path d="M4088 7903 c7 -3 16 -2 19 1 4 3 -2 6 -13 5 -11 0 -14 -3 -6 -6z"/>
<path d="M4048 7893 c7 -3 16 -2 19 1 4 3 -2 6 -13 5 -11 0 -14 -3 -6 -6z"/>
<path d="M3945 7870 c-13 -5 -14 -9 -5 -9 8 0 24 4 35 9 13 5 14 9 5 9 -8 0
-24 -4 -35 -9z"/>
<path d="M3785 7807 c-126 -67 -276 -171 -360 -249 -52 -48 -19 -30 42 23 79
69 219 162 331 221 51 26 87 48 80 48 -7 0 -49 -20 -93 -43z"/>
<path d="M3102 7807 c-32 -33 -39 -47 -23 -47 10 0 65 70 59 76 -2 2 -19 -11
-36 -29z"/>
<path d="M7827 7823 c3 -7 6 -13 8 -13 2 0 5 6 8 13 3 8 -1 14 -8 14 -7 0 -11
-6 -8 -14z"/>
<path d="M2989 7763 l-34 -36 38 28 c20 15 37 31 37 36 0 14 -4 11 -41 -28z"/>
<path d="M6360 7785 c0 -3 27 -18 60 -35 75 -38 78 -32 5 9 -55 31 -65 35 -65
26z"/>
<path d="M7190 7748 c0 -9 5 -20 10 -23 13 -8 13 5 0 25 -8 13 -10 13 -10 -2z"/>
<path d="M7240 7724 c0 -8 5 -12 10 -9 6 4 8 11 5 16 -9 14 -15 11 -15 -7z"/>
<path d="M6490 7717 c0 -3 12 -12 26 -22 15 -9 23 -12 20 -6 -7 11 -46 35 -46
28z"/>
<path d="M7740 7641 c0 -13 29 -35 37 -28 7 8 -15 37 -28 37 -5 0 -9 -4 -9 -9z"/>
<path d="M6633 7618 c2 -7 10 -12 16 -10 17 4 72 -28 66 -38 -3 -5 -1 -11 4
-14 5 -4 8 2 7 11 -2 10 -20 28 -42 40 -44 26 -58 28 -51 11z"/>
<path d="M2777 7550 c-19 -22 -22 -35 -7 -25 10 6 34 45 28 45 -2 0 -11 -9
-21 -20z"/>
<path d="M7810 7565 c0 -17 34 -65 70 -100 l41 -40 -21 50 c-11 28 -33 60 -48
72 -26 22 -42 29 -42 18z"/>
<path d="M6810 7486 c0 -2 7 -7 16 -10 8 -3 12 -2 9 4 -6 10 -25 14 -25 6z"/>
<path d="M7484 7456 c8 -19 41 -67 73 -107 217 -270 350 -521 478 -903 53
-159 113 -384 134 -501 57 -321 55 -971 -4 -1368 -59 -392 -66 -428 -116 -564
-62 -171 -216 -475 -267 -528 -43 -45 -90 -120 -95 -153 -2 -11 -10 -29 -19
-39 -20 -23 -53 -90 -62 -125 -7 -31 11 -40 21 -10 27 81 59 130 132 202 56
55 91 100 114 147 19 37 62 118 96 178 102 184 184 412 200 559 6 54 25 173
42 265 27 144 32 203 41 451 18 527 0 779 -83 1120 -65 270 -189 631 -275 803
-91 181 -229 394 -287 443 -17 15 -32 30 -32 34 0 8 -96 130 -102 130 -2 0 3
-15 11 -34z"/>
<path d="M2259 7345 c-137 -218 -310 -613 -403 -920 -20 -66 -40 -134 -46
-150 -23 -70 -31 -150 -35 -320 -3 -129 -11 -210 -26 -285 -11 -58 -23 -136
-24 -175 -7 -136 31 -531 54 -573 20 -35 30 31 21 134 -17 191 -19 503 -5 604
7 52 16 167 19 255 4 110 11 182 24 230 120 447 160 551 404 1068 51 109 78
178 76 195 -3 24 -10 16 -59 -63z"/>
<path d="M7944 7393 c18 -47 122 -224 221 -375 180 -275 186 -286 232 -407 49
-132 73 -240 108 -493 41 -303 49 -421 50 -768 0 -354 -7 -449 -60 -774 -22
-139 -23 -156 -5 -156 44 0 100 302 122 657 12 201 2 539 -23 762 -8 71 -8 96
1 101 9 6 9 13 1 29 -7 12 -16 72 -22 134 -11 133 -24 207 -49 290 -10 34 -30
107 -46 162 -15 55 -35 117 -45 137 -11 21 -19 48 -19 60 0 17 -3 19 -9 9 -14
-22 -35 24 -21 48 14 28 12 39 -4 19 -12 -17 -14 -17 -28 0 -9 9 -35 49 -59
87 -24 39 -78 117 -121 174 -44 57 -86 118 -95 135 -49 97 -109 186 -126 186
-5 0 -6 -8 -3 -17z"/>
<path d="M2337 7383 c-4 -3 -7 -11 -7 -17 0 -6 5 -5 12 2 6 6 9 14 7 17 -3 3
-9 2 -12 -2z"/>
<path d="M2610 7356 c-15 -39 -12 -46 6 -13 9 16 13 31 10 34 -3 3 -10 -6 -16
-21z"/>
<path d="M1997 7216 c-4 -10 -7 -25 -6 -34 0 -11 4 -9 10 7 5 13 8 29 6 35 -2
5 -6 2 -10 -8z"/>
<path d="M2042 7138 c-109 -187 -195 -399 -315 -783 -14 -44 -40 -117 -58
-163 -31 -79 -32 -85 -21 -140 17 -84 15 -327 -4 -440 -23 -135 -15 -377 20
-577 72 -410 145 -707 225 -914 17 -42 51 -130 77 -196 84 -216 133 -305 267
-479 31 -41 82 -121 112 -177 48 -89 81 -138 159 -234 16 -20 17 -27 6 -39
-10 -13 -7 -21 23 -51 19 -19 42 -35 51 -35 23 0 31 26 17 56 -8 19 -16 24
-31 19 -16 -5 -20 -2 -20 15 0 11 -18 44 -39 73 -21 29 -51 76 -65 105 -46 91
-175 295 -232 367 -126 159 -334 722 -429 1160 -94 436 -120 670 -96 877 6 57
13 207 15 333 3 220 4 233 29 290 14 33 42 119 62 190 68 245 124 390 256 661
38 77 69 146 69 152 0 34 -35 2 -78 -70z"/>
<path d="M2452 7150 c-34 -52 -56 -130 -34 -116 7 4 12 14 12 23 0 9 14 41 31
71 40 71 33 87 -9 22z"/>
<path d="M1943 7078 c-64 -85 -89 -130 -106 -188 -9 -30 -24 -77 -32 -105 -8
-27 -11 -45 -6 -40 5 6 19 42 31 80 27 85 80 193 127 258 19 26 33 47 30 47
-3 0 -22 -24 -44 -52z"/>
<path d="M2252 7022 c-89 -132 -223 -487 -292 -776 -16 -68 -34 -136 -40 -150
-11 -30 -46 -245 -54 -331 -22 -242 -27 -428 -16 -560 7 -77 14 -237 16 -355
l3 -215 61 -190 c161 -495 185 -566 226 -650 24 -49 74 -133 111 -186 38 -53
77 -113 88 -133 11 -20 24 -36 30 -36 16 0 145 -206 145 -232 0 -5 6 -16 13
-23 6 -8 18 -21 25 -30 7 -8 17 -15 22 -15 15 0 12 36 -5 50 -8 6 -17 22 -21
33 -3 12 -30 61 -60 108 -30 47 -54 95 -54 105 0 13 -3 15 -8 6 -6 -9 -14 -7
-29 10 -36 39 -134 196 -179 287 -40 81 -139 351 -199 541 -14 47 -43 132 -65
190 -21 58 -44 121 -50 140 -7 20 -16 132 -20 260 -5 124 -12 289 -16 367 -12
242 28 706 74 858 17 55 49 165 72 244 47 168 99 306 181 483 33 70 62 142 66
160 3 18 14 52 24 76 10 23 15 42 11 42 -4 0 -31 -35 -60 -78z"/>
<path d="M1840 7070 c0 -14 7 -20 23 -20 32 0 40 10 19 26 -25 19 -42 17 -42
-6z"/>
<path d="M7435 6935 c6 -27 25 -74 122 -304 72 -172 97 -264 169 -621 25 -124
54 -250 65 -280 10 -30 18 -64 17 -75 -1 -11 13 -64 30 -118 30 -90 32 -108
32 -236 0 -267 -113 -935 -215 -1271 -29 -95 -133 -343 -237 -563 -38 -81 -72
-163 -75 -182 -3 -19 -9 -32 -14 -29 -14 8 -32 -42 -25 -71 11 -43 41 -29 42
20 0 28 19 76 61 160 33 66 90 185 126 265 35 80 78 174 95 210 81 177 182
567 231 890 26 176 61 642 41 545 -6 -29 -8 -16 -4 47 5 105 -22 302 -70 514
-152 663 -168 713 -301 938 -32 55 -67 120 -77 145 -12 30 -17 36 -13 16z"/>
<path d="M8297 6756 c-12 -31 -8 -72 15 -142 14 -45 23 -62 26 -49 4 19 -13
135 -27 184 -6 22 -8 23 -14 7z"/>
<path d="M1664 6613 c1 -103 -1 -114 -46 -243 -48 -139 -85 -301 -73 -319 14
-24 25 -8 25 39 0 64 30 189 77 320 33 93 37 115 37 198 -1 51 -5 97 -11 103
-6 6 -9 -28 -9 -98z"/>
<path d="M2247 6593 c-8 -15 -26 -38 -40 -49 -13 -12 -49 -73 -80 -135 -45
-92 -62 -144 -91 -270 -21 -90 -40 -209 -46 -280 -6 -68 -14 -149 -20 -179
-19 -109 -32 -376 -25 -505 4 -71 16 -186 26 -255 11 -69 28 -188 39 -265 10
-77 30 -183 44 -235 14 -52 26 -104 26 -114 0 -11 32 -88 71 -170 84 -177 131
-296 153 -386 15 -60 94 -235 102 -227 2 2 -10 46 -27 97 -29 92 -30 94 -14
145 19 58 17 96 -4 103 -9 3 -11 0 -6 -7 9 -16 -4 -107 -14 -95 -4 5 -17 43
-30 84 -29 94 -94 248 -133 318 -20 36 -35 85 -49 158 -10 58 -23 122 -28 142
-6 21 -17 91 -25 157 -8 66 -22 152 -30 190 -32 155 -41 264 -40 500 0 379 32
593 129 880 4 13 1 11 -8 -5 -19 -33 -83 -244 -92 -304 -4 -25 -11 -49 -15
-51 -16 -10 14 213 40 300 5 17 16 62 25 100 20 86 78 211 141 305 26 39 44
73 41 76 -3 3 -12 -7 -20 -23z"/>
<path d="M8634 5988 c3 -22 0 -38 -5 -38 -6 0 -4 -7 4 -15 18 -17 21 -33 42
-185 35 -268 46 -642 25 -850 -14 -136 -62 -322 -164 -635 -46 -143 -92 -289
-102 -325 -10 -36 -47 -128 -82 -205 -35 -77 -78 -174 -94 -215 -62 -154 -147
-310 -261 -480 -102 -151 -279 -383 -349 -458 -22 -23 -38 -46 -34 -50 12 -12
146 140 275 313 186 247 224 311 373 629 165 349 188 406 213 511 14 58 41
151 61 207 34 99 129 435 158 562 30 130 39 266 33 516 -8 308 -46 646 -83
725 l-14 30 4 -37z"/>
<path d="M2543 5952 c-45 -51 -31 -54 20 -4 24 24 35 42 27 41 -8 0 -29 -17
-47 -37z"/>
<path d="M7401 5724 c0 -11 3 -14 6 -6 3 7 2 16 -1 19 -3 4 -6 -2 -5 -13z"/>
<path d="M7510 5724 c0 -8 5 -12 10 -9 6 4 8 11 5 16 -9 14 -15 11 -15 -7z"/>
<path d="M7776 5673 c-11 -11 -6 -23 9 -23 8 0 15 4 15 9 0 13 -16 22 -24 14z"/>
<path d="M2138 4542 c-3 -11 10 -40 33 -73 43 -60 51 -111 24 -163 -19 -37
-19 -39 5 -26 24 13 41 72 33 114 -5 26 -79 166 -88 166 -1 0 -5 -8 -7 -18z"/>
<path d="M8055 4360 c-32 -67 -39 -91 -37 -129 3 -50 -1 -63 -98 -316 -68
-176 -123 -335 -117 -341 2 -2 25 51 51 119 153 393 186 485 186 523 0 22 14
78 30 123 17 46 29 88 28 93 -2 5 -21 -28 -43 -72z"/>
<path d="M7880 4422 c0 -7 -6 -12 -13 -12 -7 0 -13 -9 -14 -20 -1 -11 2 -20 6
-20 10 0 33 51 26 58 -3 3 -5 0 -5 -6z"/>
<path d="M2420 4386 c0 -9 5 -16 10 -16 6 0 10 4 10 9 0 6 -4 13 -10 16 -5 3
-10 -1 -10 -9z"/>
<path d="M2675 4371 c-3 -17 -17 -46 -31 -66 -13 -20 -23 -48 -23 -63 2 -25 2
-25 6 -4 3 13 15 39 28 58 24 35 41 91 32 100 -3 3 -8 -8 -12 -25z"/>
<path d="M7642 4330 c0 -19 2 -27 5 -17 2 9 2 25 0 35 -3 9 -5 1 -5 -18z"/>
<path d="M7356 4237 c3 -10 9 -15 12 -12 3 3 0 11 -7 18 -10 9 -11 8 -5 -6z"/>
<path d="M7370 4199 c0 -5 5 -7 10 -4 6 3 10 8 10 11 0 2 -4 4 -10 4 -5 0 -10
-5 -10 -11z"/>
<path d="M1752 3970 c-2 -254 3 -272 122 -487 114 -206 466 -702 466 -656 0 6
-39 60 -87 119 -103 130 -251 346 -318 464 -26 47 -70 125 -97 173 -55 97 -52
79 -77 417 l-8 115 -1 -145z"/>
<path d="M2477 3644 c-4 -4 -7 -17 -7 -28 1 -19 1 -20 11 -3 11 19 8 43 -4 31z"/>
<path d="M2435 3573 c-23 -55 -28 -80 -16 -87 6 -4 13 5 16 21 3 15 10 45 15
66 10 47 5 47 -15 0z"/>
<path d="M7685 3587 c-4 -10 -5 -21 -1 -24 10 -10 18 4 13 24 -4 17 -4 17 -12
0z"/>
<path d="M3547 3493 c-4 -3 -7 -13 -7 -22 1 -13 3 -13 11 2 11 19 8 33 -4 20z"/>
<path d="M3527 3433 c-103 -350 -128 -455 -126 -537 1 -40 4 -28 15 54 13 93
35 185 105 424 11 37 18 70 16 72 -3 3 -7 -3 -10 -13z"/>
<path d="M6820 3380 c-8 -5 -10 -10 -5 -10 6 0 17 5 25 10 8 5 11 10 5 10 -5
0 -17 -5 -25 -10z"/>
<path d="M2990 3359 c0 -11 4 -18 10 -14 5 3 7 12 3 20 -7 21 -13 19 -13 -6z"/>
<path d="M6623 3281 c-84 -44 -158 -81 -165 -84 -7 -2 -10 -8 -6 -12 6 -7 328
161 328 171 0 6 5 8 -157 -75z"/>
<path d="M2640 3092 c0 -11 7 -25 16 -33 8 -7 22 -25 30 -41 8 -15 19 -28 24
-28 6 0 2 12 -7 27 -10 15 -22 40 -28 57 -12 35 -35 47 -35 18z"/>
<path d="M3561 3013 c0 -4 4 -17 9 -28 8 -19 9 -19 9 2 1 12 -3 25 -9 28 -5 3
-10 3 -9 -2z"/>
<path d="M2730 2964 c0 -39 216 -283 360 -406 101 -86 333 -238 364 -238 22 0
-24 42 -126 117 -66 48 -155 115 -197 148 -91 72 -304 277 -346 334 -27 36
-55 59 -55 45z"/>
<path d="M6521 2923 c-65 -43 -85 -63 -62 -63 5 0 14 7 22 16 7 8 36 31 66 51
48 31 61 43 49 43 -2 0 -36 -21 -75 -47z"/>
<path d="M2658 2870 c-3 -16 -1 -30 4 -30 5 0 20 -12 33 -27 29 -33 32 -17 9
44 -19 50 -40 56 -46 13z"/>
<path d="M3380 2816 c0 -3 9 -10 20 -16 11 -6 20 -8 20 -6 0 3 -9 10 -20 16
-11 6 -20 8 -20 6z"/>
<path d="M6542 2748 c5 -15 28 -18 29 -3 0 6 -7 12 -17 13 -10 3 -15 -1 -12
-10z"/>
<path d="M7317 2211 c-48 -38 -108 -84 -134 -102 -26 -18 -71 -52 -100 -75
-28 -23 -81 -59 -117 -79 -36 -20 -66 -39 -66 -41 0 -9 138 65 166 89 16 13
72 55 125 93 82 59 229 184 216 184 -3 0 -43 -31 -90 -69z"/>
<path d="M3107 2004 c-4 -4 -7 -14 -7 -23 0 -11 3 -12 11 -4 6 6 10 16 7 23
-2 6 -7 8 -11 4z"/>
<path d="M6830 1875 c-19 -14 -28 -25 -21 -25 7 0 26 11 43 25 16 14 26 25 21
25 -5 0 -24 -11 -43 -25z"/>
<path d="M6672 1744 c-56 -35 -107 -62 -112 -59 -6 3 -7 -1 -4 -10 6 -14 11
-13 43 6 20 12 59 34 87 50 42 24 108 80 93 79 -2 0 -50 -30 -107 -66z"/>
<path d="M4686 1541 c-4 -7 -5 -15 -2 -18 9 -9 19 4 14 18 -4 11 -6 11 -12 0z"/>
<path d="M3950 1514 c0 -14 4 -23 10 -19 6 3 10 15 10 26 0 10 -4 19 -10 19
-5 0 -10 -12 -10 -26z"/>
<path d="M4740 1444 c0 -17 23 -44 38 -44 10 0 29 -8 42 -17 28 -20 105 -26
89 -7 -5 6 -28 16 -51 23 -24 7 -58 21 -76 32 -35 20 -42 22 -42 13z"/>
<path d="M5550 1370 c0 -5 5 -10 11 -10 5 0 7 5 4 10 -3 6 -8 10 -11 10 -2 0
-4 -4 -4 -10z"/>
<path d="M4560 1330 c6 -11 15 -18 21 -15 13 9 11 13 -12 25 -19 11 -20 10 -9
-10z"/>
<path d="M6065 1330 c-3 -5 -5 -10 -3 -10 2 0 34 -11 73 -25 68 -25 69 -25
112 -8 38 16 59 43 33 43 -5 0 -10 -5 -10 -10 0 -6 -11 -15 -24 -21 -20 -9
-34 -7 -79 15 -59 27 -92 33 -102 16z"/>
<path d="M4652 1321 c-20 -12 -1 -17 78 -19 61 -3 159 -16 205 -28 17 -5 16
-3 -4 12 -43 31 -245 57 -279 35z"/>
<path d="M5493 1323 c-25 -10 -14 -31 15 -28 15 2 59 7 97 11 116 12 119 23 5
23 -58 -1 -111 -3 -117 -6z"/>
<path d="M4170 1311 c64 -37 517 -80 535 -51 3 6 -9 9 -32 8 -38 -1 -117 8
-328 37 -124 17 -199 19 -175 6z"/>
<path d="M4745 1260 c28 -12 47 -12 40 0 -3 6 -18 10 -33 9 -24 0 -25 -1 -7
-9z"/>
<path d="M4810 1251 c0 -6 12 -11 26 -11 14 0 33 -4 42 -9 9 -4 34 -12 56 -15
29 -6 37 -4 34 6 -7 19 -158 47 -158 29z"/>
</g>
</svg>
