<?xml version="1.0" encoding="UTF-8"?>
<!DOCTYPE svg PUBLIC "-//W3C//DTD SVG 1.1//EN" "http://www.w3.org/Graphics/SVG/1.1/DTD/svg11.dtd">
<svg xmlns="http://www.w3.org/2000/svg" version="1.1" width="500px" height="500px" style="shape-rendering:geometricPrecision; text-rendering:geometricPrecision; image-rendering:optimizeQuality; fill-rule:evenodd; clip-rule:evenodd" xmlns:xlink="http://www.w3.org/1999/xlink">
<g><path style="opacity:0.188" fill="#414e68" d="M 243.5,55.5 C 242.5,55.5 241.5,55.5 240.5,55.5C 240.823,61.69 240.49,67.69 239.5,73.5C 239.5,67.1667 239.5,60.8333 239.5,54.5C 241.099,54.2322 242.432,54.5655 243.5,55.5 Z"/></g>
<g><path style="opacity:0.114" fill="#8497b0" d="M 248.5,74.5 C 251.34,76.7151 252.007,79.3818 250.5,82.5C 250.416,79.6726 249.75,77.006 248.5,74.5 Z"/></g>
<g><path style="opacity:0.133" fill="#97a4b4" d="M 230.5,88.5 C 229.713,90.1042 228.38,90.7709 226.5,90.5C 227.514,89.3263 228.847,88.6596 230.5,88.5 Z"/></g>
<g><path style="opacity:0.322" fill="#8794b2" d="M 226.5,90.5 C 226.027,91.9063 225.027,92.573 223.5,92.5C 223.973,91.0937 224.973,90.427 226.5,90.5 Z"/></g>
<g><path style="opacity:1" fill="#68162a" d="M 229.5,92.5 C 237.352,91.2851 245.352,91.2851 253.5,92.5C 253.5,92.8333 253.5,93.1667 253.5,93.5C 251.833,93.5 250.167,93.5 248.5,93.5C 242.355,92.5098 236.022,92.1765 229.5,92.5 Z"/></g>
<g><path style="opacity:1" fill="#230b25" d="M 245.5,85.5 C 246.801,86.8845 246.801,88.3845 245.5,90C 248.192,90.4298 250.859,90.2631 253.5,89.5C 253.5,90.5 253.5,91.5 253.5,92.5C 245.352,91.2851 237.352,91.2851 229.5,92.5C 227.408,94.1695 225.408,95.8362 223.5,97.5C 221.246,98.4151 219.246,99.7484 217.5,101.5C 217.629,99.7839 217.962,98.1172 218.5,96.5C 219.945,94.9373 221.611,93.604 223.5,92.5C 225.027,92.573 226.027,91.9063 226.5,90.5C 228.38,90.7709 229.713,90.1042 230.5,88.5C 230.833,88.5 231.167,88.5 231.5,88.5C 233.102,90.0739 235.102,90.7406 237.5,90.5C 236.459,87.5422 236.459,84.5422 237.5,81.5C 238.586,81.38 239.253,80.7133 239.5,79.5C 239.124,77.1966 238.124,76.8632 236.5,78.5C 236.62,77.4138 237.287,76.7472 238.5,76.5C 240.805,77.3372 243.138,77.5039 245.5,77C 246.574,77.7387 247.241,78.7387 247.5,80C 246.144,81.5671 245.477,83.4004 245.5,85.5 Z"/></g>
<g><path style="opacity:1" fill="#f78f88" d="M 238.5,94.5 C 238.5,95.1667 238.5,95.8333 238.5,96.5C 236.565,97.1495 234.565,97.4828 232.5,97.5C 233.256,93.8208 235.256,92.8208 238.5,94.5 Z"/></g>
<g><path style="opacity:1" fill="#f44441" d="M 248.5,93.5 C 253.03,96.884 256.363,101.217 258.5,106.5C 258.5,107.833 258.5,109.167 258.5,110.5C 249.494,110.666 240.494,110.5 231.5,110C 235.311,106.21 237.645,101.71 238.5,96.5C 238.5,95.8333 238.5,95.1667 238.5,94.5C 241.728,93.5863 245.061,93.2529 248.5,93.5 Z"/></g>
<g><path style="opacity:1" fill="#e3504e" d="M 229.5,92.5 C 236.022,92.1765 242.355,92.5098 248.5,93.5C 245.061,93.2529 241.728,93.5863 238.5,94.5C 235.256,92.8208 233.256,93.8208 232.5,97.5C 234.565,97.4828 236.565,97.1495 238.5,96.5C 237.645,101.71 235.311,106.21 231.5,110C 240.494,110.5 249.494,110.666 258.5,110.5C 258.5,109.167 258.5,107.833 258.5,106.5C 259.345,107.671 260.011,109.005 260.5,110.5C 250.681,111.494 240.681,111.827 230.5,111.5C 231.196,108.446 232.696,105.78 235,103.5C 235.494,101.866 235.66,100.199 235.5,98.5C 229.918,100.748 225.918,104.748 223.5,110.5C 220.5,110.5 217.5,110.5 214.5,110.5C 214.149,107.188 215.482,104.855 218.5,103.5C 218.47,104.497 218.97,105.164 220,105.5C 223.621,104.38 226.121,102.046 227.5,98.5C 226.311,97.5713 224.978,97.238 223.5,97.5C 225.408,95.8362 227.408,94.1695 229.5,92.5 Z"/></g>
<g><path style="opacity:1" fill="#27213c" d="M 243.5,55.5 C 244.49,61.31 244.823,67.31 244.5,73.5C 245.959,73.4326 247.292,73.7659 248.5,74.5C 249.75,77.006 250.416,79.6726 250.5,82.5C 249.334,84.166 249.334,85.8327 250.5,87.5C 262.764,92.2603 272.097,100.427 278.5,112C 277.968,114.02 276.635,114.853 274.5,114.5C 274.5,119.5 274.5,124.5 274.5,129.5C 274.5,130.167 274.167,130.5 273.5,130.5C 273.666,125.156 273.499,119.823 273,114.5C 269.417,112.71 265.584,112.043 261.5,112.5C 264.625,111.521 267.958,111.187 271.5,111.5C 271.657,110.127 271.49,108.793 271,107.5C 265.966,101.746 260.133,97.0791 253.5,93.5C 253.5,93.1667 253.5,92.8333 253.5,92.5C 253.5,91.5 253.5,90.5 253.5,89.5C 250.859,90.2631 248.192,90.4298 245.5,90C 246.801,88.3845 246.801,86.8845 245.5,85.5C 245.477,83.4004 246.144,81.5671 247.5,80C 247.241,78.7387 246.574,77.7387 245.5,77C 243.138,77.5039 240.805,77.3372 238.5,76.5C 237.287,76.7472 236.62,77.4138 236.5,78.5C 235.285,79.779 235.618,80.779 237.5,81.5C 236.459,84.5422 236.459,87.5422 237.5,90.5C 235.102,90.7406 233.102,90.0739 231.5,88.5C 232.929,87.7658 233.929,86.5991 234.5,85C 230.657,78.5151 232.324,74.6818 239.5,73.5C 240.49,67.69 240.823,61.69 240.5,55.5C 241.5,55.5 242.5,55.5 243.5,55.5 Z"/></g>
<g><path style="opacity:1" fill="#bd4557" d="M 245.5,85.5 C 245.5,86.5 245.5,87.5 245.5,88.5C 243.167,88.5 240.833,88.5 238.5,88.5C 238.5,87.1667 238.5,85.8333 238.5,84.5C 240.95,84.298 243.283,84.6314 245.5,85.5 Z"/></g>
<g><path style="opacity:1" fill="#a5425a" d="M 237.5,81.5 C 235.618,80.779 235.285,79.779 236.5,78.5C 238.124,76.8632 239.124,77.1966 239.5,79.5C 239.253,80.7133 238.586,81.38 237.5,81.5 Z"/></g>
<g><path style="opacity:1" fill="#b12b32" d="M 248.5,93.5 C 250.167,93.5 251.833,93.5 253.5,93.5C 253.5,94.5 253.5,95.5 253.5,96.5C 254.5,96.5 255.5,96.5 256.5,96.5C 256.351,97.552 256.517,98.552 257,99.5C 257.333,99.1667 257.667,98.8333 258,98.5C 259.361,100.028 260.528,101.695 261.5,103.5C 263.5,104.333 265.5,105.167 267.5,106C 268.061,107.676 269.061,109.009 270.5,110C 267.183,110.498 263.85,110.665 260.5,110.5C 260.011,109.005 259.345,107.671 258.5,106.5C 256.363,101.217 253.03,96.884 248.5,93.5 Z"/></g>
<g><path style="opacity:1" fill="#a73c4b" d="M 253.5,93.5 C 260.133,97.0791 265.966,101.746 271,107.5C 271.49,108.793 271.657,110.127 271.5,111.5C 267.958,111.187 264.625,111.521 261.5,112.5C 245.167,112.5 228.833,112.5 212.5,112.5C 212.461,111.417 212.127,110.417 211.5,109.5C 213.14,106.532 215.14,103.865 217.5,101.5C 219.246,99.7484 221.246,98.4151 223.5,97.5C 221.833,99.5 220.167,101.5 218.5,103.5C 215.482,104.855 214.149,107.188 214.5,110.5C 217.5,110.5 220.5,110.5 223.5,110.5C 225.607,111.468 227.941,111.802 230.5,111.5C 240.681,111.827 250.681,111.494 260.5,110.5C 263.85,110.665 267.183,110.498 270.5,110C 269.061,109.009 268.061,107.676 267.5,106C 265.5,105.167 263.5,104.333 261.5,103.5C 260.528,101.695 259.361,100.028 258,98.5C 257.667,98.8333 257.333,99.1667 257,99.5C 256.517,98.552 256.351,97.552 256.5,96.5C 255.5,96.5 254.5,96.5 253.5,96.5C 253.5,95.5 253.5,94.5 253.5,93.5 Z"/></g>
<g><path style="opacity:1" fill="#faa49d" d="M 230.5,111.5 C 227.941,111.802 225.607,111.468 223.5,110.5C 225.918,104.748 229.918,100.748 235.5,98.5C 235.66,100.199 235.494,101.866 235,103.5C 232.696,105.78 231.196,108.446 230.5,111.5 Z"/></g>
<g><path style="opacity:1" fill="#fca49b" d="M 223.5,97.5 C 224.978,97.238 226.311,97.5713 227.5,98.5C 226.121,102.046 223.621,104.38 220,105.5C 218.97,105.164 218.47,104.497 218.5,103.5C 220.167,101.5 221.833,99.5 223.5,97.5 Z"/></g>
<g><path style="opacity:1" fill="#f0f6e2" d="M 174.5,121.5 C 163.643,119.746 152.81,117.746 142,115.5C 141.167,115.667 140.333,115.833 139.5,116C 142.607,117.691 145.941,118.858 149.5,119.5C 149.833,120.167 150.167,120.833 150.5,121.5C 149.333,121.833 148.167,122.167 147,122.5C 133.956,119.623 120.789,117.79 107.5,117C 112.889,119.315 118.556,120.815 124.5,121.5C 125.713,121.747 126.38,122.414 126.5,123.5C 111.163,120.777 95.8293,117.943 80.5,115C 79.6198,113.644 79.2865,112.144 79.5,110.5C 98.8712,113.054 118.205,115.554 137.5,118C 118.501,113.224 99.5012,108.558 80.5,104C 78.4453,103.313 76.7786,102.146 75.5,100.5C 75.9996,99.1195 76.9996,98.4528 78.5,98.5C 110.716,105.673 142.716,113.34 174.5,121.5 Z"/></g>
<g><path style="opacity:0.718" fill="#16162d" d="M 218.5,96.5 C 217.962,98.1172 217.629,99.7839 217.5,101.5C 215.14,103.865 213.14,106.532 211.5,109.5C 212.127,110.417 212.461,111.417 212.5,112.5C 209.452,112.494 208.952,113.494 211,115.5C 211.333,114.833 211.667,114.167 212,113.5C 214.277,114.117 216.444,114.784 218.5,115.5C 217.167,115.5 215.833,115.5 214.5,115.5C 213.506,124.986 213.173,134.652 213.5,144.5C 209.642,144.764 205.642,145.597 201.5,147C 203.767,149.542 206.433,150.376 209.5,149.5C 210.474,151.743 210.808,154.076 210.5,156.5C 208.516,156.617 206.85,155.95 205.5,154.5C 204.914,154.709 204.414,155.043 204,155.5C 203.51,154.207 203.343,152.873 203.5,151.5C 202.5,151.5 201.5,151.5 200.5,151.5C 200.737,150.209 200.404,149.209 199.5,148.5C 199.167,148.5 198.833,148.5 198.5,148.5C 198.5,147.5 198.5,146.5 198.5,145.5C 201.689,145.142 204.689,144.475 207.5,143.5C 209.436,139.285 210.103,134.619 209.5,129.5C 209.666,124.821 209.499,120.155 209,115.5C 207.933,114.809 206.766,114.309 205.5,114C 204.941,113.275 204.608,112.442 204.5,111.5C 208.172,105.497 212.839,100.497 218.5,96.5 Z"/></g>
<g><path style="opacity:1" fill="#fbf6d2" d="M 346.5,126.5 C 349.139,127.459 351.806,128.626 354.5,130C 351.167,130.333 347.833,130.667 344.5,131C 341.536,131.84 341.203,132.84 343.5,134C 364.353,133.777 385.187,132.943 406,131.5C 406.833,131.833 407.667,132.167 408.5,132.5C 389.172,134.046 369.838,135.713 350.5,137.5C 347.061,137.554 343.894,138.22 341,139.5C 338.936,138.409 336.769,138.242 334.5,139C 335.459,140.464 336.792,141.297 338.5,141.5C 345.469,140.405 352.469,140.239 359.5,141C 355.452,141.304 351.452,141.804 347.5,142.5C 341.768,142.283 336.101,142.783 330.5,144C 331.167,145.667 331.833,147.333 332.5,149C 331.386,150.57 330.053,151.903 328.5,153C 331.23,154.232 331.063,155.065 328,155.5C 324.667,154.167 321.333,154.167 318,155.5C 313.384,153.892 308.551,153.059 303.5,153C 298.187,150.132 292.521,148.965 286.5,149.5C 286.753,147.173 286.086,145.173 284.5,143.5C 281.572,142.516 278.572,142.183 275.5,142.5C 275.5,138.5 275.5,134.5 275.5,130.5C 279.22,130.436 282.886,129.936 286.5,129C 287.056,128.617 287.389,128.117 287.5,127.5C 299.81,126.459 311.81,124.125 323.5,120.5C 326.593,120.758 329.426,121.758 332,123.5C 333.67,123.656 335.337,122.99 337,121.5C 338.63,122.713 340.464,123.546 342.5,124C 341.833,124.333 341.167,124.667 340.5,125C 342.708,125.191 344.708,125.691 346.5,126.5 Z"/></g>
<g><path style="opacity:1" fill="#fbf5d2" d="M 207.5,143.5 C 204.689,144.475 201.689,145.142 198.5,145.5C 198.5,146.5 198.5,147.5 198.5,148.5C 198.03,149.693 197.03,150.36 195.5,150.5C 188.148,150.694 181.148,152.194 174.5,155C 171.183,155.498 167.85,155.665 164.5,155.5C 162.801,155.66 161.134,155.494 159.5,155C 164.138,152.565 169.138,150.898 174.5,150C 169.833,149.667 165.167,149.333 160.5,149C 159.667,148.167 158.833,147.333 158,146.5C 154.256,147.626 150.423,147.793 146.5,147C 151.022,145.886 155.689,145.053 160.5,144.5C 157.839,143.501 155.172,142.501 152.5,141.5C 151.158,142.902 150.324,142.569 150,140.5C 148.703,141.784 147.536,141.617 146.5,140C 150.541,139.827 154.541,139.327 158.5,138.5C 150.532,135.723 150.866,133.723 159.5,132.5C 155.527,131.619 151.36,131.619 147,132.5C 145.566,132.07 144.399,131.236 143.5,130C 148.5,129.667 153.5,129.333 158.5,129C 158.833,128.667 159.167,128.333 159.5,128C 157.479,127.599 156.145,126.432 155.5,124.5C 156.557,124.094 157.891,124.094 159.5,124.5C 159.358,120.777 160.691,119.944 163.5,122C 173.455,121.793 182.789,123.793 191.5,128C 196.547,128.338 201.547,129.005 206.5,130C 208.783,134.288 209.116,138.788 207.5,143.5 Z"/></g>
<g><path style="opacity:0.963" fill="#f3f7fa" d="M 221.5,118.5 C 221.5,127.167 221.5,135.833 221.5,144.5C 218.292,144.348 216.292,142.348 215.5,138.5C 215.851,132.968 216.351,127.302 217,121.5C 218.615,120.614 220.115,119.614 221.5,118.5 Z"/></g>
<g><path style="opacity:0.933" fill="#f3f6de" d="M 370.5,121.5 C 363.859,121.45 357.526,122.45 351.5,124.5C 349.833,125.167 348.167,125.833 346.5,126.5C 344.708,125.691 342.708,125.191 340.5,125C 341.167,124.667 341.833,124.333 342.5,124C 340.464,123.546 338.63,122.713 337,121.5C 335.337,122.99 333.67,123.656 332,123.5C 329.426,121.758 326.593,120.758 323.5,120.5C 311.81,124.125 299.81,126.459 287.5,127.5C 328.752,116.773 370.418,107.107 412.5,98.5C 412.759,101.48 411.426,103.313 408.5,104C 389.234,108.92 369.9,113.587 350.5,118C 353.167,118.667 355.833,118.667 358.5,118C 375.096,114.913 391.762,112.413 408.5,110.5C 408.714,112.144 408.38,113.644 407.5,115C 395.257,117.749 382.924,119.915 370.5,121.5 Z"/></g>
<g><path style="opacity:0.9" fill="#f6f6da" d="M 174.5,121.5 C 186.293,123.699 197.959,126.365 209.5,129.5C 210.103,134.619 209.436,139.285 207.5,143.5C 209.116,138.788 208.783,134.288 206.5,130C 201.547,129.005 196.547,128.338 191.5,128C 182.789,123.793 173.455,121.793 163.5,122C 160.691,119.944 159.358,120.777 159.5,124.5C 157.891,124.094 156.557,124.094 155.5,124.5C 156.145,126.432 157.479,127.599 159.5,128C 159.167,128.333 158.833,128.667 158.5,129C 153.5,129.333 148.5,129.667 143.5,130C 144.399,131.236 145.566,132.07 147,132.5C 151.36,131.619 155.527,131.619 159.5,132.5C 150.866,133.723 150.532,135.723 158.5,138.5C 154.541,139.327 150.541,139.827 146.5,140C 147.536,141.617 148.703,141.784 150,140.5C 150.324,142.569 151.158,142.902 152.5,141.5C 155.172,142.501 157.839,143.501 160.5,144.5C 155.689,145.053 151.022,145.886 146.5,147C 150.423,147.793 154.256,147.626 158,146.5C 158.833,147.333 159.667,148.167 160.5,149C 165.167,149.333 169.833,149.667 174.5,150C 169.138,150.898 164.138,152.565 159.5,155C 161.134,155.494 162.801,155.66 164.5,155.5C 162.579,157.419 160.079,158.419 157,158.5C 154.452,158.401 152.952,157.068 152.5,154.5C 151.707,154.931 150.873,155.265 150,155.5C 146.206,154.77 142.373,154.27 138.5,154C 139.167,153.333 139.833,152.667 140.5,152C 143.5,151.667 146.5,151.333 149.5,151C 148.956,150.283 148.289,149.783 147.5,149.5C 147.167,149.5 146.833,149.5 146.5,149.5C 129.373,150.168 112.039,150.668 94.5,151C 97.1667,150.333 99.8333,149.667 102.5,149C 116.524,147.932 130.524,146.598 144.5,145C 145.696,144.346 145.696,143.846 144.5,143.5C 141.081,143.329 137.581,143.663 134,144.5C 133.5,144 133,143.5 132.5,143C 115.167,142.667 97.8333,142.333 80.5,142C 102.832,140.317 125.165,138.984 147.5,138C 125.177,136.042 102.844,134.209 80.5,132.5C 91.8138,131.501 103.147,131.168 114.5,131.5C 120.842,131.666 127.175,131.5 133.5,131C 115.088,129.327 96.7543,127.161 78.5,124.5C 78.5,123.167 78.5,121.833 78.5,120.5C 97.183,122.004 113.183,123.004 126.5,123.5C 126.38,122.414 125.713,121.747 124.5,121.5C 118.556,120.815 112.889,119.315 107.5,117C 120.789,117.79 133.956,119.623 147,122.5C 148.167,122.167 149.333,121.833 150.5,121.5C 150.167,120.833 149.833,120.167 149.5,119.5C 145.941,118.858 142.607,117.691 139.5,116C 140.333,115.833 141.167,115.667 142,115.5C 152.81,117.746 163.643,119.746 174.5,121.5 Z"/></g>
<g><path style="opacity:0.043" fill="#a3b5d8" d="M 214.5,115.5 C 214.5,125.5 214.5,135.5 214.5,145.5C 216.415,145.216 218.081,145.549 219.5,146.5C 216.918,146.975 214.918,146.308 213.5,144.5C 213.173,134.652 213.506,124.986 214.5,115.5 Z"/></g>
<g><path style="opacity:1" fill="#f0f5e1" d="M 385.5,153.5 C 392.323,153.134 399.323,152.967 406.5,153C 407.833,152.333 407.833,151.667 406.5,151C 391.55,149.375 376.55,148.375 361.5,148C 356.167,147 350.833,146 345.5,145C 346.381,144.292 347.047,143.458 347.5,142.5C 351.452,141.804 355.452,141.304 359.5,141C 352.469,140.239 345.469,140.405 338.5,141.5C 336.792,141.297 335.459,140.464 334.5,139C 336.769,138.242 338.936,138.409 341,139.5C 343.894,138.22 347.061,137.554 350.5,137.5C 369.838,135.713 389.172,134.046 408.5,132.5C 407.667,132.167 406.833,131.833 406,131.5C 385.187,132.943 364.353,133.777 343.5,134C 341.203,132.84 341.536,131.84 344.5,131C 347.833,130.667 351.167,130.333 354.5,130C 351.806,128.626 349.139,127.459 346.5,126.5C 348.167,125.833 349.833,125.167 351.5,124.5C 357.526,122.45 363.859,121.45 370.5,121.5C 367.058,122.748 363.392,123.581 359.5,124C 361,124.167 362.5,124.333 364,124.5C 379.154,122.751 394.32,121.584 409.5,121C 410.833,122 410.833,123 409.5,124C 407.608,124.973 405.608,125.64 403.5,126C 388.833,127.667 374.167,129.333 359.5,131C 375.749,131.43 391.916,130.93 408,129.5C 410.952,131.193 411.118,133.026 408.5,135C 394.179,136.116 379.846,137.116 365.5,138C 379.818,138.976 394.152,139.642 408.5,140C 409.517,141.049 409.684,142.216 409,143.5C 406.333,144.167 403.667,144.833 401,145.5C 385.222,145.344 369.389,145.177 353.5,145C 371.528,146.385 389.528,148.052 407.5,150C 408.38,151.356 408.714,152.856 408.5,154.5C 400.817,154.477 393.15,154.143 385.5,153.5 Z"/></g>
<g><path style="opacity:1" fill="#1e213d" d="M 274.5,143.5 C 277.679,144.793 281.012,145.46 284.5,145.5C 284.371,147.216 284.038,148.883 283.5,150.5C 283.666,156.176 283.499,161.843 283,167.5C 278.693,169.646 275.193,172.646 272.5,176.5C 272.104,173.956 272.771,171.789 274.5,170C 274.167,169.667 273.833,169.333 273.5,169C 281.318,168.919 284.318,164.919 282.5,157C 282.167,153.833 281.833,150.667 281.5,147.5C 279.556,146.811 277.556,146.311 275.5,146C 274.748,145.329 274.414,144.496 274.5,143.5 Z"/></g>
<g><path style="opacity:0.558" fill="#edf5e6" d="M 384.5,153.5 C 373.217,152.225 361.884,151.725 350.5,152C 369.552,154.302 388.552,156.969 407.5,160C 408.38,161.356 408.714,162.856 408.5,164.5C 389.081,162.916 369.748,160.583 350.5,157.5C 349.833,157.667 349.167,157.833 348.5,158C 349.737,158.232 350.737,158.732 351.5,159.5C 345.843,160.07 340.51,159.07 335.5,156.5C 338.167,156.167 340.833,155.833 343.5,155.5C 362.112,158.163 380.779,160.496 399.5,162.5C 401.167,162.167 402.833,161.833 404.5,161.5C 384.53,158.337 364.53,155.504 344.5,153C 342.579,152.64 340.912,151.806 339.5,150.5C 339.808,149.692 340.308,149.025 341,148.5C 355.096,149.841 369.262,151.007 383.5,152C 384.056,152.383 384.389,152.883 384.5,153.5 Z"/></g>
<g><path style="opacity:1" fill="#eff6e4" d="M 114.5,131.5 C 103.147,131.168 91.8138,131.501 80.5,132.5C 102.844,134.209 125.177,136.042 147.5,138C 125.165,138.984 102.832,140.317 80.5,142C 97.8333,142.333 115.167,142.667 132.5,143C 133,143.5 133.5,144 134,144.5C 137.581,143.663 141.081,143.329 144.5,143.5C 145.696,143.846 145.696,144.346 144.5,145C 130.524,146.598 116.524,147.932 102.5,149C 99.8333,149.667 97.1667,150.333 94.5,151C 112.039,150.668 129.373,150.168 146.5,149.5C 146.833,150.833 147.167,150.833 147.5,149.5C 148.289,149.783 148.956,150.283 149.5,151C 146.5,151.333 143.5,151.667 140.5,152C 139.833,152.667 139.167,153.333 138.5,154C 142.373,154.27 146.206,154.77 150,155.5C 150.873,155.265 151.707,154.931 152.5,154.5C 152.952,157.068 154.452,158.401 157,158.5C 160.079,158.419 162.579,157.419 164.5,155.5C 167.85,155.665 171.183,155.498 174.5,155C 181.148,152.194 188.148,150.694 195.5,150.5C 197.03,150.36 198.03,149.693 198.5,148.5C 198.833,148.5 199.167,148.5 199.5,148.5C 199.5,149.5 199.5,150.5 199.5,151.5C 161.505,159.266 123.505,167.099 85.5,175C 82.5184,175.498 79.5184,175.665 76.5,175.5C 76.1367,173.089 77.1367,171.589 79.5,171C 99.0155,167.268 118.349,162.934 137.5,158C 118.198,160.216 98.8648,162.216 79.5,164C 78.1667,162.667 78.1667,161.333 79.5,160C 97.7702,156.97 116.104,154.303 134.5,152C 115.809,152.247 97.1423,152.914 78.5,154C 77.0745,152.286 77.4078,150.953 79.5,150C 96.482,148.187 113.482,146.521 130.5,145C 113.5,144.667 96.5,144.333 79.5,144C 78.6198,142.644 78.2865,141.144 78.5,139.5C 96.6575,138.996 114.991,138.496 133.5,138C 115.114,137.273 96.7803,135.94 78.5,134C 77.1667,132.667 77.1667,131.333 78.5,130C 90.6701,129.84 102.67,130.34 114.5,131.5 Z"/></g>
<g><path style="opacity:0.936" fill="#191735" d="M 212.5,112.5 C 228.833,112.5 245.167,112.5 261.5,112.5C 265.584,112.043 269.417,112.71 273,114.5C 273.499,119.823 273.666,125.156 273.5,130.5C 273.182,135.032 273.515,139.366 274.5,143.5C 274.414,144.496 274.748,145.329 275.5,146C 277.556,146.311 279.556,146.811 281.5,147.5C 281.833,150.667 282.167,153.833 282.5,157C 284.318,164.919 281.318,168.919 273.5,169C 273.833,169.333 274.167,169.667 274.5,170C 272.771,171.789 272.104,173.956 272.5,176.5C 272.5,177.833 272.5,179.167 272.5,180.5C 271.801,187.4 271.134,194.4 270.5,201.5C 270.167,201.5 269.833,201.5 269.5,201.5C 269.5,199.5 269.5,197.5 269.5,195.5C 269.823,189.31 269.49,183.31 268.5,177.5C 268.196,176.85 267.863,176.183 267.5,175.5C 268.602,174.824 269.602,174.158 270.5,173.5C 271.66,171.797 270.993,171.131 268.5,171.5C 268.389,170.883 268.056,170.383 267.5,170C 269.058,169.79 270.391,169.29 271.5,168.5C 273.893,167.79 276.393,167.123 279,166.5C 279.497,164.19 279.663,161.857 279.5,159.5C 276.061,159.253 272.728,159.586 269.5,160.5C 262.167,160.5 254.833,160.5 247.5,160.5C 247.5,159.833 247.5,159.167 247.5,158.5C 247.5,158.167 247.5,157.833 247.5,157.5C 248.011,154.037 249.011,150.704 250.5,147.5C 250.5,146.833 250.833,146.5 251.5,146.5C 253.833,146.5 256.167,146.5 258.5,146.5C 258.5,136.5 258.5,126.5 258.5,116.5C 247.5,116.5 236.5,116.5 225.5,116.5C 225.5,126.5 225.5,136.5 225.5,146.5C 227.833,146.5 230.167,146.5 232.5,146.5C 232.5,146.833 232.5,147.167 232.5,147.5C 231.975,148.728 230.642,149.562 228.5,150C 230.936,149.947 233.269,150.113 235.5,150.5C 233.686,154.542 234.353,157.876 237.5,160.5C 228.821,160.761 220.321,160.095 212,158.5C 208.979,158.502 206.146,158.836 203.5,159.5C 203.279,162.279 203.612,164.946 204.5,167.5C 202.965,166.646 201.632,166.646 200.5,167.5C 199.512,162.36 199.179,157.026 199.5,151.5C 199.5,150.5 199.5,149.5 199.5,148.5C 200.404,149.209 200.737,150.209 200.5,151.5C 201.5,151.5 202.5,151.5 203.5,151.5C 203.343,152.873 203.51,154.207 204,155.5C 204.414,155.043 204.914,154.709 205.5,154.5C 206.85,155.95 208.516,156.617 210.5,156.5C 210.808,154.076 210.474,151.743 209.5,149.5C 206.433,150.376 203.767,149.542 201.5,147C 205.642,145.597 209.642,144.764 213.5,144.5C 214.918,146.308 216.918,146.975 219.5,146.5C 220.833,146.5 221.5,145.833 221.5,144.5C 221.5,135.833 221.5,127.167 221.5,118.5C 221.19,116.856 220.19,115.856 218.5,115.5C 216.444,114.784 214.277,114.117 212,113.5C 211.667,114.167 211.333,114.833 211,115.5C 208.952,113.494 209.452,112.494 212.5,112.5 Z M 251.5,151.5 C 253.5,151.5 255.5,151.5 257.5,151.5C 257.5,153.5 257.5,155.5 257.5,157.5C 257.167,157.5 256.833,157.5 256.5,157.5C 254.833,157.5 253.167,157.5 251.5,157.5C 251.5,155.5 251.5,153.5 251.5,151.5 Z M 225.5,151.5 C 227.833,151.5 230.167,151.5 232.5,151.5C 232.5,153.5 232.5,155.5 232.5,157.5C 230.167,157.5 227.833,157.5 225.5,157.5C 225.5,155.5 225.5,153.5 225.5,151.5 Z M 266.5,150.5 C 267.5,150.5 268.5,150.5 269.5,150.5C 269.5,152.5 269.5,154.5 269.5,156.5C 268.5,156.5 267.5,156.5 266.5,156.5C 266.5,154.5 266.5,152.5 266.5,150.5 Z M 214.5,156.5 C 214.201,154.396 214.534,152.396 215.5,150.5C 215.833,151.5 216.167,152.5 216.5,153.5C 216.36,155.03 215.693,156.03 214.5,156.5 Z M 251.5,146.5 C 253.669,144.66 255.002,142.326 255.5,139.5C 257.819,135.626 257.653,131.626 255,127.5C 253.961,126.29 252.794,125.29 251.5,124.5C 245.558,119.55 239.224,119.217 232.5,123.5C 226.917,127.886 225.083,133.553 227,140.5C 227.708,141.381 228.542,142.047 229.5,142.5C 230.147,144.141 231.147,145.474 232.5,146.5C 230.167,146.5 227.833,146.5 225.5,146.5C 225.5,136.5 225.5,126.5 225.5,116.5C 236.5,116.5 247.5,116.5 258.5,116.5C 258.5,126.5 258.5,136.5 258.5,146.5C 256.167,146.5 253.833,146.5 251.5,146.5 Z M 263.5,115.5 C 265.5,115.5 267.5,115.5 269.5,115.5C 269.5,125.833 269.5,136.167 269.5,146.5C 267.5,146.5 265.5,146.5 263.5,146.5C 263.5,136.167 263.5,125.833 263.5,115.5 Z"/></g>
<g><path style="opacity:0.075" fill="#8897b0" d="M 251.5,151.5 C 253.607,150.532 255.941,150.198 258.5,150.5C 258.802,153.059 258.468,155.393 257.5,157.5C 257.5,155.5 257.5,153.5 257.5,151.5C 255.5,151.5 253.5,151.5 251.5,151.5 Z"/></g>
<g><path style="opacity:1" fill="#e0bf83" d="M 247.5,152.5 C 244.272,151.586 240.939,151.253 237.5,151.5C 237.5,153.5 237.5,155.5 237.5,157.5C 240.833,157.5 244.167,157.5 247.5,157.5C 247.5,157.833 247.5,158.167 247.5,158.5C 243.833,158.5 240.167,158.5 236.5,158.5C 236.5,155.833 236.5,153.167 236.5,150.5C 240.649,149.92 244.316,150.586 247.5,152.5 Z"/></g>
<g><path style="opacity:0.09" fill="#8d9bb8" d="M 214.5,156.5 C 213.532,154.393 213.198,152.059 213.5,149.5C 214.833,149.5 216.167,149.5 217.5,149.5C 217.5,152.167 217.5,154.833 217.5,157.5C 216.209,157.737 215.209,157.404 214.5,156.5 Z M 214.5,156.5 C 215.693,156.03 216.36,155.03 216.5,153.5C 216.167,152.5 215.833,151.5 215.5,150.5C 214.534,152.396 214.201,154.396 214.5,156.5 Z"/></g>
<g><path style="opacity:0.273" fill="#716f91" d="M 262.5,150.5 C 263.895,152.847 263.728,155.181 262,157.5C 262.207,155.249 262.373,152.915 262.5,150.5 Z"/></g>
<g><path style="opacity:1" fill="#1a0b18" d="M 232.5,147.5 C 238.5,147.5 244.5,147.5 250.5,147.5C 249.011,150.704 248.011,154.037 247.5,157.5C 247.5,155.833 247.5,154.167 247.5,152.5C 244.316,150.586 240.649,149.92 236.5,150.5C 236.5,153.167 236.5,155.833 236.5,158.5C 240.167,158.5 243.833,158.5 247.5,158.5C 247.5,159.167 247.5,159.833 247.5,160.5C 244.167,160.5 240.833,160.5 237.5,160.5C 234.353,157.876 233.686,154.542 235.5,150.5C 233.269,150.113 230.936,149.947 228.5,150C 230.642,149.562 231.975,148.728 232.5,147.5 Z"/></g>
<g><path style="opacity:1" fill="#f7c340" d="M 247.5,152.5 C 247.5,154.167 247.5,155.833 247.5,157.5C 244.167,157.5 240.833,157.5 237.5,157.5C 237.5,155.5 237.5,153.5 237.5,151.5C 240.939,151.253 244.272,151.586 247.5,152.5 Z"/></g>
<g><path style="opacity:0.047" fill="#c2b37d" d="M 255.5,139.5 C 255.002,142.326 253.669,144.66 251.5,146.5C 250.833,146.5 250.5,146.833 250.5,147.5C 244.5,147.5 238.5,147.5 232.5,147.5C 232.5,147.167 232.5,146.833 232.5,146.5C 235.5,146.5 238.5,146.5 241.5,146.5C 247.834,147.333 252.5,145 255.5,139.5 Z"/></g>
<g><path style="opacity:1" fill="#faf55c" d="M 236.5,124.5 C 242.764,130.421 244.43,137.421 241.5,145.5C 231.361,144.943 227.861,139.61 231,129.5C 232.379,127.285 234.213,125.619 236.5,124.5 Z"/></g>
<g><path style="opacity:1" fill="#f1f37c" d="M 236.5,123.5 C 236.5,123.833 236.5,124.167 236.5,124.5C 234.213,125.619 232.379,127.285 231,129.5C 227.861,139.61 231.361,144.943 241.5,145.5C 241.5,145.833 241.5,146.167 241.5,146.5C 238.5,146.5 235.5,146.5 232.5,146.5C 231.147,145.474 230.147,144.141 229.5,142.5C 225.913,134.004 228.247,127.67 236.5,123.5 Z"/></g>
<g><path style="opacity:1" fill="#f8c53c" d="M 251.5,124.5 C 251.092,127.599 252.259,129.933 255,131.5C 255.497,134.146 255.664,136.813 255.5,139.5C 252.5,145 247.834,147.333 241.5,146.5C 241.5,146.167 241.5,145.833 241.5,145.5C 244.43,137.421 242.764,130.421 236.5,124.5C 236.5,124.167 236.5,123.833 236.5,123.5C 241.604,122.096 246.604,122.429 251.5,124.5 Z"/></g>
<g><path style="opacity:1" fill="#e4d382" d="M 251.5,124.5 C 252.794,125.29 253.961,126.29 255,127.5C 257.653,131.626 257.819,135.626 255.5,139.5C 255.664,136.813 255.497,134.146 255,131.5C 252.259,129.933 251.092,127.599 251.5,124.5 Z"/></g>
<g><path style="opacity:0.827" fill="#e2e4a4" d="M 251.5,124.5 C 246.604,122.429 241.604,122.096 236.5,123.5C 228.247,127.67 225.913,134.004 229.5,142.5C 228.542,142.047 227.708,141.381 227,140.5C 225.083,133.553 226.917,127.886 232.5,123.5C 239.224,119.217 245.558,119.55 251.5,124.5 Z"/></g>
<g><path style="opacity:0.998" fill="#f4f5db" d="M 287.5,127.5 C 287.389,128.117 287.056,128.617 286.5,129C 282.886,129.936 279.22,130.436 275.5,130.5C 275.5,134.5 275.5,138.5 275.5,142.5C 278.572,142.183 281.572,142.516 284.5,143.5C 286.086,145.173 286.753,147.173 286.5,149.5C 292.521,148.965 298.187,150.132 303.5,153C 308.551,153.059 313.384,153.892 318,155.5C 321.333,154.167 324.667,154.167 328,155.5C 331.063,155.065 331.23,154.232 328.5,153C 330.053,151.903 331.386,150.57 332.5,149C 331.833,147.333 331.167,145.667 330.5,144C 336.101,142.783 341.768,142.283 347.5,142.5C 347.047,143.458 346.381,144.292 345.5,145C 350.833,146 356.167,147 361.5,148C 376.55,148.375 391.55,149.375 406.5,151C 407.833,151.667 407.833,152.333 406.5,153C 399.323,152.967 392.323,153.134 385.5,153.5C 385.167,153.5 384.833,153.5 384.5,153.5C 384.389,152.883 384.056,152.383 383.5,152C 369.262,151.007 355.096,149.841 341,148.5C 340.308,149.025 339.808,149.692 339.5,150.5C 340.912,151.806 342.579,152.64 344.5,153C 364.53,155.504 384.53,158.337 404.5,161.5C 402.833,161.833 401.167,162.167 399.5,162.5C 380.779,160.496 362.112,158.163 343.5,155.5C 340.833,155.833 338.167,156.167 335.5,156.5C 340.51,159.07 345.843,160.07 351.5,159.5C 369.844,163.114 388.177,166.948 406.5,171C 408.863,171.589 409.863,173.089 409.5,175.5C 406.482,175.665 403.482,175.498 400.5,175C 361.481,166.831 322.481,158.664 283.5,150.5C 284.038,148.883 284.371,147.216 284.5,145.5C 281.012,145.46 277.679,144.793 274.5,143.5C 273.515,139.366 273.182,135.032 273.5,130.5C 274.167,130.5 274.5,130.167 274.5,129.5C 278.76,128.415 283.094,127.748 287.5,127.5 Z"/></g>
<g><path style="opacity:0.145" fill="#9fa8c6" d="M 251.5,151.5 C 251.5,153.5 251.5,155.5 251.5,157.5C 253.167,157.5 254.833,157.5 256.5,157.5C 254.735,158.461 252.735,158.795 250.5,158.5C 250.198,155.941 250.532,153.607 251.5,151.5 Z"/></g>
<g><path style="opacity:1" fill="#390926" d="M 203.5,159.5 C 206.146,158.836 208.979,158.502 212,158.5C 220.321,160.095 228.821,160.761 237.5,160.5C 240.833,160.5 244.167,160.5 247.5,160.5C 254.833,160.5 262.167,160.5 269.5,160.5C 255.01,161.496 240.343,161.829 225.5,161.5C 224.167,161.5 222.833,161.5 221.5,161.5C 215.547,160.571 209.547,159.904 203.5,159.5 Z"/></g>
<g><path style="opacity:1" fill="#e8484a" d="M 225.5,162.5 C 237.833,162.5 250.167,162.5 262.5,162.5C 262.675,164.621 262.341,166.621 261.5,168.5C 261.5,168.833 261.5,169.167 261.5,169.5C 249.5,169.5 237.5,169.5 225.5,169.5C 225.5,167.167 225.5,164.833 225.5,162.5 Z"/></g>
<g><path style="opacity:1" fill="#f64240" d="M 227.5,163.5 C 238.976,163.878 250.309,164.711 261.5,166C 257.687,167.262 253.687,167.929 249.5,168C 241.841,168.5 234.174,168.666 226.5,168.5C 226.366,166.708 226.699,165.042 227.5,163.5 Z"/></g>
<g><path style="opacity:1" fill="#b62b34" d="M 261.5,168.5 C 262.341,166.621 262.675,164.621 262.5,162.5C 267.923,162.482 273.256,161.815 278.5,160.5C 278.5,162.167 278.5,163.833 278.5,165.5C 272.61,165.782 266.944,166.782 261.5,168.5 Z"/></g>
<g><path style="opacity:1" fill="#f59f99" d="M 221.5,161.5 C 222.833,161.5 224.167,161.5 225.5,161.5C 225.5,161.833 225.5,162.167 225.5,162.5C 225.5,164.833 225.5,167.167 225.5,169.5C 223.901,169.768 222.568,169.434 221.5,168.5C 221.5,166.167 221.5,163.833 221.5,161.5 Z"/></g>
<g><path style="opacity:1" fill="#d8474c" d="M 203.5,159.5 C 209.547,159.904 215.547,160.571 221.5,161.5C 221.5,163.833 221.5,166.167 221.5,168.5C 215.819,168.365 210.152,168.032 204.5,167.5C 203.612,164.946 203.279,162.279 203.5,159.5 Z"/></g>
<g><path style="opacity:1" fill="#f4403f" d="M 205.5,160.5 C 209.565,162.278 213.899,162.945 218.5,162.5C 218.5,163.833 218.5,165.167 218.5,166.5C 213.964,166.567 209.631,165.901 205.5,164.5C 205.5,163.167 205.5,161.833 205.5,160.5 Z"/></g>
<g><path style="opacity:1" fill="#983042" d="M 271.5,168.5 C 268.14,168.616 264.807,168.949 261.5,169.5C 261.5,169.167 261.5,168.833 261.5,168.5C 266.944,166.782 272.61,165.782 278.5,165.5C 278.5,163.833 278.5,162.167 278.5,160.5C 273.256,161.815 267.923,162.482 262.5,162.5C 250.167,162.5 237.833,162.5 225.5,162.5C 225.5,162.167 225.5,161.833 225.5,161.5C 240.343,161.829 255.01,161.496 269.5,160.5C 272.728,159.586 276.061,159.253 279.5,159.5C 279.663,161.857 279.497,164.19 279,166.5C 276.393,167.123 273.893,167.79 271.5,168.5 Z"/></g>
<g><path style="opacity:1" fill="#772e49" d="M 268.5,171.5 C 270.993,171.131 271.66,171.797 270.5,173.5C 254.886,175.353 239.219,175.853 223.5,175C 220.044,174.82 216.711,174.153 213.5,173C 212.112,172.111 212.278,171.611 214,171.5C 232.295,174.068 250.462,174.068 268.5,171.5 Z"/></g>
<g><path style="opacity:1" fill="#2c0d2b" d="M 204.5,167.5 C 210.152,168.032 215.819,168.365 221.5,168.5C 222.568,169.434 223.901,169.768 225.5,169.5C 237.5,169.5 249.5,169.5 261.5,169.5C 264.807,168.949 268.14,168.616 271.5,168.5C 270.391,169.29 269.058,169.79 267.5,170C 268.056,170.383 268.389,170.883 268.5,171.5C 250.462,174.068 232.295,174.068 214,171.5C 212.278,171.611 212.112,172.111 213.5,173C 216.711,174.153 220.044,174.82 223.5,175C 239.219,175.853 254.886,175.353 270.5,173.5C 269.602,174.158 268.602,174.824 267.5,175.5C 267.863,176.183 268.196,176.85 268.5,177.5C 263.968,177.182 259.634,177.515 255.5,178.5C 243.068,180.139 230.735,179.806 218.5,177.5C 216.97,177.64 215.97,178.307 215.5,179.5C 214.293,186.639 213.626,193.972 213.5,201.5C 213.167,201.5 212.833,201.5 212.5,201.5C 212.2,193.777 212.533,186.11 213.5,178.5C 213.043,177.702 212.376,177.369 211.5,177.5C 211.5,176.167 210.833,175.5 209.5,175.5C 208.399,174.152 207.399,172.652 206.5,171C 203.975,170.576 201.975,169.41 200.5,167.5C 201.632,166.646 202.965,166.646 204.5,167.5 Z"/></g>
<g><path style="opacity:1" fill="#5b182f" d="M 255.5,178.5 C 259.634,177.515 263.968,177.182 268.5,177.5C 269.49,183.31 269.823,189.31 269.5,195.5C 268.565,190.006 267.898,184.339 267.5,178.5C 263.5,178.5 259.5,178.5 255.5,178.5 Z"/></g>
<g><path style="opacity:0.216" fill="#7794a4" d="M 209.5,175.5 C 210.833,175.5 211.5,176.167 211.5,177.5C 211.81,180.713 211.477,183.713 210.5,186.5C 210.756,182.731 210.423,179.064 209.5,175.5 Z"/></g>
<g><path style="opacity:1" fill="#b72c31" d="M 228.5,180.5 C 240.833,180.5 253.167,180.5 265.5,180.5C 266.227,187.158 266.893,193.825 267.5,200.5C 264.892,200.4 262.558,201.067 260.5,202.5C 260.5,196.5 260.5,190.5 260.5,184.5C 249.647,183.544 238.98,182.211 228.5,180.5 Z"/></g>
<g><path style="opacity:1" fill="#fafcf6" d="M 344.5,196.5 C 354.04,195.449 361.04,199.116 365.5,207.5C 371.555,207.188 375.555,209.855 377.5,215.5C 380.5,216.333 383.5,217.167 386.5,218C 388.886,220.707 389.052,223.54 387,226.5C 365.909,227.494 344.742,227.827 323.5,227.5C 323.653,221.677 326.653,218.344 332.5,217.5C 331.012,207.487 335.012,200.487 344.5,196.5 Z"/></g>
<g><path style="opacity:1" fill="#f14543" d="M 216.5,179.5 C 220.5,179.833 224.5,180.167 228.5,180.5C 238.98,182.211 249.647,183.544 260.5,184.5C 260.5,190.5 260.5,196.5 260.5,202.5C 258.5,202.5 256.5,202.5 254.5,202.5C 254.665,199.482 254.498,196.482 254,193.5C 253.722,192.584 253.222,191.918 252.5,191.5C 249.859,187.846 246.192,186.512 241.5,187.5C 239.883,188.038 238.216,188.371 236.5,188.5C 236.5,193.167 236.5,197.833 236.5,202.5C 234.219,202.923 232.552,202.256 231.5,200.5C 231.5,194.833 231.5,189.167 231.5,183.5C 229.833,183.5 228.167,183.5 226.5,183.5C 225.174,189.568 225.174,195.734 226.5,202C 222.754,202.256 219.087,201.756 215.5,200.5C 216.165,193.52 216.498,186.52 216.5,179.5 Z"/></g>
<g><path style="opacity:1" fill="#fd9e97" d="M 226.5,183.5 C 228.167,183.5 229.833,183.5 231.5,183.5C 231.5,189.167 231.5,194.833 231.5,200.5C 229.833,200.5 228.167,200.5 226.5,200.5C 226.5,194.833 226.5,189.167 226.5,183.5 Z"/></g>
<g><path style="opacity:1" fill="#a63843" d="M 255.5,178.5 C 259.5,178.5 263.5,178.5 267.5,178.5C 267.898,184.339 268.565,190.006 269.5,195.5C 269.5,197.5 269.5,199.5 269.5,201.5C 264.118,202.857 258.785,203.857 253.5,204.5C 253.167,204.5 252.833,204.5 252.5,204.5C 252.5,200.167 252.5,195.833 252.5,191.5C 253.222,191.918 253.722,192.584 254,193.5C 254.498,196.482 254.665,199.482 254.5,202.5C 256.5,202.5 258.5,202.5 260.5,202.5C 262.558,201.067 264.892,200.4 267.5,200.5C 266.893,193.825 266.227,187.158 265.5,180.5C 253.167,180.5 240.833,180.5 228.5,180.5C 224.5,180.167 220.5,179.833 216.5,179.5C 216.167,179.5 215.833,179.5 215.5,179.5C 215.97,178.307 216.97,177.64 218.5,177.5C 230.735,179.806 243.068,180.139 255.5,178.5 Z"/></g>
<g><path style="opacity:1" fill="#e05a59" d="M 215.5,179.5 C 215.833,179.5 216.167,179.5 216.5,179.5C 216.498,186.52 216.165,193.52 215.5,200.5C 219.087,201.756 222.754,202.256 226.5,202C 225.174,195.734 225.174,189.568 226.5,183.5C 226.5,189.167 226.5,194.833 226.5,200.5C 228.167,200.5 229.833,200.5 231.5,200.5C 232.552,202.256 234.219,202.923 236.5,202.5C 236.5,197.833 236.5,193.167 236.5,188.5C 238.216,188.371 239.883,188.038 241.5,187.5C 237.816,192.456 236.482,198.123 237.5,204.5C 229.146,205.154 221.146,204.154 213.5,201.5C 213.626,193.972 214.293,186.639 215.5,179.5 Z"/></g>
<g><path style="opacity:1" fill="#201331" d="M 241.5,187.5 C 246.192,186.512 249.859,187.846 252.5,191.5C 252.5,195.833 252.5,200.167 252.5,204.5C 252.5,206.833 252.5,209.167 252.5,211.5C 247.821,211.666 243.155,211.499 238.5,211C 237.577,208.959 237.244,206.792 237.5,204.5C 236.482,198.123 237.816,192.456 241.5,187.5 Z"/></g>
<g><path style="opacity:1" fill="#484a6a" d="M 242.5,191.5 C 245.079,191.083 247.246,191.75 249,193.5C 249.499,198.155 249.666,202.821 249.5,207.5C 246.833,207.5 244.167,207.5 241.5,207.5C 241.218,202.073 241.551,196.74 242.5,191.5 Z"/></g>
<g><path style="opacity:1" fill="#faf9ee" d="M 212.5,201.5 C 212.833,201.5 213.167,201.5 213.5,201.5C 221.146,204.154 229.146,205.154 237.5,204.5C 237.244,206.792 237.577,208.959 238.5,211C 243.155,211.499 247.821,211.666 252.5,211.5C 252.5,209.167 252.5,206.833 252.5,204.5C 252.833,204.5 253.167,204.5 253.5,204.5C 256.167,204.5 258.833,204.5 261.5,204.5C 261.728,216.17 262.062,227.837 262.5,239.5C 259.236,240.324 255.902,240.658 252.5,240.5C 253.532,234.866 251.198,231.866 245.5,231.5C 240.016,231.985 237.349,234.985 237.5,240.5C 227.81,241.123 218.477,239.79 209.5,236.5C 210.926,224.874 211.926,213.208 212.5,201.5 Z"/></g>
<g><path style="opacity:1" fill="#1c1e39" d="M 211.5,177.5 C 212.376,177.369 213.043,177.702 213.5,178.5C 212.533,186.11 212.2,193.777 212.5,201.5C 211.926,213.208 210.926,224.874 209.5,236.5C 209.5,236.833 209.5,237.167 209.5,237.5C 208.275,242.29 207.608,247.29 207.5,252.5C 207.5,257.833 207.5,263.167 207.5,268.5C 206.732,269.263 206.232,270.263 206,271.5C 205.732,279.28 204.899,286.946 203.5,294.5C 202.055,298.921 201.222,303.588 201,308.5C 200.667,309.167 200.333,309.833 200,310.5C 199.601,310.272 199.435,309.938 199.5,309.5C 199.663,307.143 199.497,304.81 199,302.5C 197.938,301.903 196.772,301.57 195.5,301.5C 189.705,303.134 183.705,303.968 177.5,304C 173.84,308.613 169.173,309.946 163.5,308C 160.466,309.191 158.799,311.358 158.5,314.5C 157.351,314.209 156.684,313.376 156.5,312C 157.674,308.329 160.007,305.829 163.5,304.5C 165.694,303.234 168.028,303.234 170.5,304.5C 175.898,299.856 182.232,298.189 189.5,299.5C 190.496,299.414 191.329,299.748 192,300.5C 192.388,299.572 193.055,298.905 194,298.5C 196.112,299.386 198.278,299.386 200.5,298.5C 200.5,297.167 200.5,295.833 200.5,294.5C 203.36,258.319 206.694,222.319 210.5,186.5C 211.477,183.713 211.81,180.713 211.5,177.5 Z"/></g>
<g><path style="opacity:1" fill="#fdfcf5" d="M 157.5,238.5 C 158.167,238.5 158.5,238.833 158.5,239.5C 161.279,240.315 164.279,241.982 167.5,244.5C 168.452,246.045 168.785,247.712 168.5,249.5C 144.729,251.302 120.729,251.968 96.5,251.5C 96.3433,250.127 96.51,248.793 97,247.5C 99.5742,244.48 102.408,241.813 105.5,239.5C 105.553,227.436 111.553,220.102 123.5,217.5C 125.601,217.632 127.101,218.632 128,220.5C 129,220.167 130,219.833 131,219.5C 135.884,222.394 139.384,226.561 141.5,232C 145.083,231.754 148.75,232.087 152.5,233C 154.308,234.844 155.974,236.677 157.5,238.5 Z"/></g>
<g><path style="opacity:1" fill="#d8d3c5" d="M 269.5,201.5 C 269.833,201.5 270.167,201.5 270.5,201.5C 271.287,213.159 271.954,224.826 272.5,236.5C 271.833,236.5 271.5,236.833 271.5,237.5C 268.574,238.461 265.574,239.127 262.5,239.5C 262.062,227.837 261.728,216.17 261.5,204.5C 258.833,204.5 256.167,204.5 253.5,204.5C 258.785,203.857 264.118,202.857 269.5,201.5 Z"/></g>
<g><path style="opacity:0.984" fill="#f4fdfd" d="M 157.5,238.5 C 155.974,236.677 154.308,234.844 152.5,233C 148.75,232.087 145.083,231.754 141.5,232C 139.384,226.561 135.884,222.394 131,219.5C 130,219.833 129,220.167 128,220.5C 127.101,218.632 125.601,217.632 123.5,217.5C 111.553,220.102 105.553,227.436 105.5,239.5C 102.408,241.813 99.5742,244.48 97,247.5C 96.51,248.793 96.3433,250.127 96.5,251.5C 120.729,251.968 144.729,251.302 168.5,249.5C 168.785,247.712 168.452,246.045 167.5,244.5C 164.279,241.982 161.279,240.315 158.5,239.5C 167.157,237.679 171.323,241.012 171,249.5C 170.5,251.333 169.333,252.5 167.5,253C 143.167,253.667 118.833,253.667 94.5,253C 92.5465,245.435 95.5465,241.268 103.5,240.5C 102.71,223.124 111.043,214.957 128.5,216C 135.434,217.936 140.101,222.269 142.5,229C 146.701,229.074 150.701,229.907 154.5,231.5C 156.854,233.246 157.854,235.579 157.5,238.5 Z"/></g>
<g><path style="opacity:1" fill="#b12e35" d="M 271.5,237.5 C 272.478,247.799 273.145,258.133 273.5,268.5C 270.854,270.253 267.854,271.253 264.5,271.5C 265.061,270.092 265.395,268.592 265.5,267C 264.784,259.184 264.284,251.351 264,243.5C 263.617,242.944 263.117,242.611 262.5,242.5C 262.5,242.167 262.5,241.833 262.5,241.5C 262.5,240.833 262.5,240.167 262.5,239.5C 265.574,239.127 268.574,238.461 271.5,237.5 Z"/></g>
<g><path style="opacity:1" fill="#f44240" d="M 220.5,240.5 C 220.709,241.922 221.209,243.255 222,244.5C 222.5,253.16 222.666,261.827 222.5,270.5C 219.5,270.5 216.5,270.5 213.5,270.5C 213.167,270.5 212.833,270.5 212.5,270.5C 211.713,268.896 210.38,268.229 208.5,268.5C 210.155,258.918 211.155,249.252 211.5,239.5C 214.455,240.159 217.455,240.492 220.5,240.5 Z"/></g>
<g><path style="opacity:1" fill="#1a0e2b" d="M 252.5,240.5 C 252.819,245.363 252.486,250.03 251.5,254.5C 247.486,254.666 243.486,254.499 239.5,254C 238.86,249.732 238.193,245.565 237.5,241.5C 237.5,241.167 237.5,240.833 237.5,240.5C 237.349,234.985 240.016,231.985 245.5,231.5C 251.198,231.866 253.532,234.866 252.5,240.5 Z"/></g>
<g><path style="opacity:1" fill="#474d6b" d="M 243.5,234.5 C 245.722,234.178 247.556,234.845 249,236.5C 249.499,241.489 249.666,246.489 249.5,251.5C 246.833,251.5 244.167,251.5 241.5,251.5C 241.334,246.489 241.501,241.489 242,236.5C 242.717,235.956 243.217,235.289 243.5,234.5 Z"/></g>
<g><path style="opacity:1" fill="#671e32" d="M 209.5,237.5 C 209.904,242.783 209.238,247.783 207.5,252.5C 207.608,247.29 208.275,242.29 209.5,237.5 Z"/></g>
<g><path style="opacity:1" fill="#d45055" d="M 209.5,236.5 C 218.477,239.79 227.81,241.123 237.5,240.5C 237.5,240.833 237.5,241.167 237.5,241.5C 237.2,246.099 237.533,250.599 238.5,255C 243.02,255.814 247.354,255.647 251.5,254.5C 252.486,250.03 252.819,245.363 252.5,240.5C 255.902,240.658 259.236,240.324 262.5,239.5C 262.5,240.167 262.5,240.833 262.5,241.5C 259.833,241.5 257.167,241.5 254.5,241.5C 254.879,246.297 254.379,250.964 253,255.5C 247.667,256.833 242.333,256.833 237,255.5C 237.108,250.72 236.275,246.386 234.5,242.5C 229.971,241.727 225.305,241.06 220.5,240.5C 217.455,240.492 214.455,240.159 211.5,239.5C 211.155,249.252 210.155,258.918 208.5,268.5C 210.38,268.229 211.713,268.896 212.5,270.5C 210.302,270.88 208.635,270.213 207.5,268.5C 207.5,263.167 207.5,257.833 207.5,252.5C 209.238,247.783 209.904,242.783 209.5,237.5C 209.5,237.167 209.5,236.833 209.5,236.5 Z"/></g>
<g><path style="opacity:1" fill="#79253b" d="M 237.5,241.5 C 238.193,245.565 238.86,249.732 239.5,254C 243.486,254.499 247.486,254.666 251.5,254.5C 247.354,255.647 243.02,255.814 238.5,255C 237.533,250.599 237.2,246.099 237.5,241.5 Z"/></g>
<g><path style="opacity:1" fill="#f4423f" d="M 262.5,241.5 C 262.5,241.833 262.5,242.167 262.5,242.5C 263.068,251.823 263.401,261.156 263.5,270.5C 255.398,269.631 247.565,269.631 240,270.5C 238.674,270.245 237.674,269.578 237,268.5C 235.535,270.915 233.368,271.915 230.5,271.5C 231.804,261.826 231.804,252.16 230.5,242.5C 231.833,242.5 233.167,242.5 234.5,242.5C 236.275,246.386 237.108,250.72 237,255.5C 242.333,256.833 247.667,256.833 253,255.5C 254.379,250.964 254.879,246.297 254.5,241.5C 257.167,241.5 259.833,241.5 262.5,241.5 Z"/></g>
<g><path style="opacity:1" fill="#8d2d41" d="M 272.5,236.5 C 273.692,247.133 274.692,257.8 275.5,268.5C 274.833,268.5 274.167,268.5 273.5,268.5C 273.145,258.133 272.478,247.799 271.5,237.5C 271.5,236.833 271.833,236.5 272.5,236.5 Z"/></g>
<g><path style="opacity:1" fill="#f9a39a" d="M 227.5,273.5 C 223.96,273.247 220.627,272.581 217.5,271.5C 219.5,271.5 221.5,271.5 223.5,271.5C 223.334,262.827 223.5,254.16 224,245.5C 225.699,244.594 227.533,244.261 229.5,244.5C 229.666,253.173 229.5,261.84 229,270.5C 227.601,271.227 226.101,271.727 224.5,272C 225.737,272.232 226.737,272.732 227.5,273.5 Z"/></g>
<g><path style="opacity:0.951" fill="#f5fdfb" d="M 359.5,256.5 C 363.872,256.358 367.205,258.191 369.5,262C 373.093,264.458 377.093,265.792 381.5,266C 382.517,267.049 382.684,268.216 382,269.5C 371.248,270.487 360.415,270.82 349.5,270.5C 349.343,269.127 349.51,267.793 350,266.5C 352.643,262.69 355.809,259.357 359.5,256.5 Z"/></g>
<g><path style="opacity:1" fill="#e14744" d="M 220.5,240.5 C 225.305,241.06 229.971,241.727 234.5,242.5C 233.167,242.5 231.833,242.5 230.5,242.5C 231.804,252.16 231.804,261.826 230.5,271.5C 233.368,271.915 235.535,270.915 237,268.5C 237.674,269.578 238.674,270.245 240,270.5C 247.565,269.631 255.398,269.631 263.5,270.5C 263.401,261.156 263.068,251.823 262.5,242.5C 263.117,242.611 263.617,242.944 264,243.5C 264.284,251.351 264.784,259.184 265.5,267C 265.395,268.592 265.061,270.092 264.5,271.5C 261.273,271.676 258.273,272.343 255.5,273.5C 246.167,273.5 236.833,273.5 227.5,273.5C 226.737,272.732 225.737,272.232 224.5,272C 226.101,271.727 227.601,271.227 229,270.5C 229.5,261.84 229.666,253.173 229.5,244.5C 227.533,244.261 225.699,244.594 224,245.5C 223.5,254.16 223.334,262.827 223.5,271.5C 221.5,271.5 219.5,271.5 217.5,271.5C 215.901,271.768 214.568,271.434 213.5,270.5C 216.5,270.5 219.5,270.5 222.5,270.5C 222.666,261.827 222.5,253.16 222,244.5C 221.209,243.255 220.709,241.922 220.5,240.5 Z"/></g>
<g><path style="opacity:1" fill="#fbf8ed" d="M 207.5,268.5 C 208.635,270.213 210.302,270.88 212.5,270.5C 212.833,270.5 213.167,270.5 213.5,270.5C 214.568,271.434 215.901,271.768 217.5,271.5C 220.627,272.581 223.96,273.247 227.5,273.5C 236.833,273.5 246.167,273.5 255.5,273.5C 258.5,273.5 261.5,273.5 264.5,273.5C 265.117,279.598 264.45,285.265 262.5,290.5C 251.498,283.444 242.998,285.778 237,297.5C 236.503,300.146 236.336,302.813 236.5,305.5C 233.5,305.5 230.5,305.5 227.5,305.5C 225.5,305.5 223.5,305.5 221.5,305.5C 215.597,303.892 209.597,302.559 203.5,301.5C 203.5,299.167 203.5,296.833 203.5,294.5C 204.899,286.946 205.732,279.28 206,271.5C 206.232,270.263 206.732,269.263 207.5,268.5 Z"/></g>
<g><path style="opacity:1" fill="#dad2c6" d="M 273.5,268.5 C 274.167,268.5 274.833,268.5 275.5,268.5C 276.908,279.095 277.574,289.762 277.5,300.5C 275.013,301.323 272.679,302.323 270.5,303.5C 269.833,303.5 269.167,303.5 268.5,303.5C 268.167,303.5 267.833,303.5 267.5,303.5C 267.798,298.316 266.131,293.983 262.5,290.5C 264.45,285.265 265.117,279.598 264.5,273.5C 261.5,273.5 258.5,273.5 255.5,273.5C 258.273,272.343 261.273,271.676 264.5,271.5C 267.854,271.253 270.854,270.253 273.5,268.5 Z"/></g>
<g><path style="opacity:0.275" fill="#91a1b3" d="M 298.5,297.5 C 300.153,297.66 301.486,298.326 302.5,299.5C 300.62,299.771 299.287,299.104 298.5,297.5 Z"/></g>
<g><path style="opacity:0.965" fill="#3f4963" d="M 200.5,294.5 C 200.5,295.833 200.5,297.167 200.5,298.5C 198.278,299.386 196.112,299.386 194,298.5C 193.055,298.905 192.388,299.572 192,300.5C 191.329,299.748 190.496,299.414 189.5,299.5C 189.918,298.778 190.584,298.278 191.5,298C 194.146,297.503 196.813,297.336 199.5,297.5C 199.263,296.209 199.596,295.209 200.5,294.5 Z"/></g>
<g><path style="opacity:0.459" fill="#606e85" d="M 311.5,301.5 C 314.067,301.721 316.401,302.388 318.5,303.5C 315.772,303.829 313.438,303.163 311.5,301.5 Z"/></g>
<g><path style="opacity:1" fill="#706e73" d="M 319.5,307.5 C 317.143,307.337 314.81,307.503 312.5,308C 303.438,312.862 294.438,317.695 285.5,322.5C 283.901,322.232 282.568,322.566 281.5,323.5C 277.493,326.003 273.16,327.67 268.5,328.5C 268.737,329.791 268.404,330.791 267.5,331.5C 267.337,329.143 267.503,326.81 268,324.5C 272.411,321.045 276.911,317.711 281.5,314.5C 282.493,309.88 282.827,305.214 282.5,300.5C 282.735,299.903 283.235,299.57 284,299.5C 287.794,300.23 291.627,300.73 295.5,301C 303.403,303.808 311.403,305.974 319.5,307.5 Z"/></g>
<g><path style="opacity:1" fill="#b2ada2" d="M 267.5,340.5 C 266.016,342.074 264.349,343.407 262.5,344.5C 258.618,344.849 254.785,345.515 251,346.5C 236.197,343.903 221.363,341.903 206.5,340.5C 199.252,337.439 192.919,332.939 187.5,327C 186.1,325.562 184.433,324.729 182.5,324.5C 182.779,329.595 182.445,334.595 181.5,339.5C 176.203,340.275 170.87,340.608 165.5,340.5C 163.022,339.805 161.022,338.305 159.5,336C 154.846,334.666 150.513,332.833 146.5,330.5C 150.458,327.556 154.458,324.556 158.5,321.5C 159.137,317.27 160.47,313.77 162.5,311C 167.304,309.92 172.138,309.087 177,308.5C 177.414,308.957 177.914,309.291 178.5,309.5C 182.577,305.607 186.577,305.607 190.5,309.5C 191.386,308.675 191.719,307.675 191.5,306.5C 192.552,306.351 193.552,306.517 194.5,307C 191.557,310.949 192.557,313.116 197.5,313.5C 197.714,315.144 197.38,316.644 196.5,318C 198.435,319.238 200.435,319.738 202.5,319.5C 201.204,321.579 199.538,323.246 197.5,324.5C 198.276,326.356 199.609,327.689 201.5,328.5C 202.833,329.833 202.833,331.167 201.5,332.5C 203.608,333.355 205.774,334.022 208,334.5C 210.502,332.566 213.336,331.566 216.5,331.5C 216.281,330.325 216.614,329.325 217.5,328.5C 222.453,329.822 227.453,330.988 232.5,332C 233.126,332.75 233.626,333.584 234,334.5C 244.312,334.778 254.812,334.445 265.5,333.5C 266.833,333.833 268.167,334.167 269.5,334.5C 268.253,336.323 267.586,338.323 267.5,340.5 Z"/></g>
<g><path style="opacity:1" fill="#b1aba2" d="M 319.5,307.5 C 320.496,307.414 321.329,307.748 322,308.5C 323.796,311.927 325.963,315.094 328.5,318C 331.239,319.026 333.572,320.526 335.5,322.5C 330.595,325.292 325.595,328.125 320.5,331C 314.165,331.556 307.832,332.056 301.5,332.5C 295.567,330.083 290.234,326.75 285.5,322.5C 294.438,317.695 303.438,312.862 312.5,308C 314.81,307.503 317.143,307.337 319.5,307.5 Z"/></g>
<g><path style="opacity:0.235" fill="#74879c" d="M 115.5,323.5 C 117.38,323.229 118.713,323.896 119.5,325.5C 117.847,325.34 116.514,324.674 115.5,323.5 Z"/></g>
<g><path style="opacity:1" fill="#22263e" d="M 163.5,304.5 C 160.007,305.829 157.674,308.329 156.5,312C 156.684,313.376 157.351,314.209 158.5,314.5C 156.461,317.93 154.295,321.263 152,324.5C 149.931,325.264 147.764,325.764 145.5,326C 144.748,326.671 144.414,327.504 144.5,328.5C 143.566,329.568 143.232,330.901 143.5,332.5C 139.81,330.841 135.81,330.007 131.5,330C 130.944,329.617 130.611,329.117 130.5,328.5C 133.786,329.207 137.119,329.54 140.5,329.5C 140.34,327.801 140.506,326.134 141,324.5C 145.592,322.391 149.759,319.724 153.5,316.5C 153.631,309.711 156.965,305.711 163.5,304.5 Z"/></g>
<g><path style="opacity:1" fill="#3d4668" d="M 120.5,325.5 C 123.928,326.51 127.261,327.51 130.5,328.5C 127.319,328.258 124.319,328.258 121.5,328.5C 120.614,327.675 120.281,326.675 120.5,325.5 Z"/></g>
<g><path style="opacity:1" fill="#1c0d26" d="M 262.5,290.5 C 266.131,293.983 267.798,298.316 267.5,303.5C 267.5,308.833 267.5,314.167 267.5,319.5C 272.145,318.963 275.478,316.63 277.5,312.5C 279.402,309.663 280.069,306.329 279.5,302.5C 280.302,303.952 280.802,305.618 281,307.5C 281.186,304.964 281.686,302.631 282.5,300.5C 282.827,305.214 282.493,309.88 281.5,314.5C 276.911,317.711 272.411,321.045 268,324.5C 267.503,326.81 267.337,329.143 267.5,331.5C 257.013,332.494 246.346,332.828 235.5,332.5C 235.5,331.167 235.5,329.833 235.5,328.5C 229.768,328.717 224.101,328.217 218.5,327C 213.344,322.586 207.677,318.919 201.5,316C 198.698,314.269 198.031,312.102 199.5,309.5C 199.435,309.938 199.601,310.272 200,310.5C 200.333,309.833 200.667,309.167 201,308.5C 201.222,303.588 202.055,298.921 203.5,294.5C 203.5,296.833 203.5,299.167 203.5,301.5C 202.357,304.976 202.19,308.642 203,312.5C 204.129,314.141 205.629,315.141 207.5,315.5C 212.208,317.958 216.541,320.958 220.5,324.5C 225.975,325.489 231.642,325.822 237.5,325.5C 237.824,318.646 237.491,311.979 236.5,305.5C 236.336,302.813 236.503,300.146 237,297.5C 242.998,285.778 251.498,283.444 262.5,290.5 Z"/></g>
<g><path style="opacity:1" fill="#72192f" d="M 236.5,305.5 C 237.491,311.979 237.824,318.646 237.5,325.5C 231.642,325.822 225.975,325.489 220.5,324.5C 225.833,324.5 231.167,324.5 236.5,324.5C 236.5,318.167 236.5,311.833 236.5,305.5 Z"/></g>
<g><path style="opacity:1" fill="#e34b4c" d="M 203.5,301.5 C 209.597,302.559 215.597,303.892 221.5,305.5C 221.334,309.514 221.501,313.514 222,317.5C 223.667,318.833 225.333,318.833 227,317.5C 227.499,313.514 227.666,309.514 227.5,305.5C 230.5,305.5 233.5,305.5 236.5,305.5C 236.5,311.833 236.5,318.167 236.5,324.5C 231.167,324.5 225.833,324.5 220.5,324.5C 216.541,320.958 212.208,317.958 207.5,315.5C 206.5,314.167 205.5,312.833 204.5,311.5C 206.544,312.031 208.211,313.198 209.5,315C 212.78,315.056 215.78,315.889 218.5,317.5C 219.489,313.893 219.823,310.226 219.5,306.5C 216.161,306.11 212.827,305.61 209.5,305C 208.347,303.117 206.681,302.284 204.5,302.5C 204.768,304.099 204.434,305.432 203.5,306.5C 203.5,304.833 203.5,303.167 203.5,301.5 Z"/></g>
<g><path style="opacity:1" fill="#f4423f" d="M 229.5,307.5 C 231.167,307.5 232.833,307.5 234.5,307.5C 234.5,312.5 234.5,317.5 234.5,322.5C 230.445,322.824 226.445,322.491 222.5,321.5C 224.972,320.104 227.638,319.27 230.5,319C 229.54,315.27 229.207,311.437 229.5,307.5 Z"/></g>
<g><path style="opacity:1" fill="#faa097" d="M 221.5,305.5 C 223.5,305.5 225.5,305.5 227.5,305.5C 227.666,309.514 227.499,313.514 227,317.5C 225.333,318.833 223.667,318.833 222,317.5C 221.501,313.514 221.334,309.514 221.5,305.5 Z"/></g>
<g><path style="opacity:1" fill="#86293b" d="M 267.5,303.5 C 267.833,303.5 268.167,303.5 268.5,303.5C 268.5,307.5 268.5,311.5 268.5,315.5C 272.002,315.666 275.002,314.666 277.5,312.5C 275.478,316.63 272.145,318.963 267.5,319.5C 267.5,314.167 267.5,308.833 267.5,303.5 Z"/></g>
<g><path style="opacity:1" fill="#b24456" d="M 249.5,289.5 C 255.851,288.59 260.351,290.923 263,296.5C 264.429,307.088 264.929,317.755 264.5,328.5C 263.5,328.5 262.5,328.5 261.5,328.5C 261.666,318.828 261.5,309.161 261,299.5C 259.233,296.228 256.733,293.895 253.5,292.5C 252.048,291.698 250.382,291.198 248.5,291C 249.056,290.617 249.389,290.117 249.5,289.5 Z"/></g>
<g><path style="opacity:1" fill="#8f3248" d="M 203.5,301.5 C 203.5,303.167 203.5,304.833 203.5,306.5C 203.216,308.415 203.549,310.081 204.5,311.5C 205.5,312.833 206.5,314.167 207.5,315.5C 205.629,315.141 204.129,314.141 203,312.5C 202.19,308.642 202.357,304.976 203.5,301.5 Z"/></g>
<g><path style="opacity:1" fill="#883043" d="M 277.5,300.5 C 278.5,300.833 279.167,301.5 279.5,302.5C 280.069,306.329 279.402,309.663 277.5,312.5C 277.5,309.167 277.5,305.833 277.5,302.5C 275.194,302.993 272.861,303.326 270.5,303.5C 272.679,302.323 275.013,301.323 277.5,300.5 Z"/></g>
<g><path style="opacity:1" fill="#f34240" d="M 204.5,311.5 C 203.549,310.081 203.216,308.415 203.5,306.5C 204.434,305.432 204.768,304.099 204.5,302.5C 206.681,302.284 208.347,303.117 209.5,305C 212.827,305.61 216.161,306.11 219.5,306.5C 219.823,310.226 219.489,313.893 218.5,317.5C 215.78,315.889 212.78,315.056 209.5,315C 208.211,313.198 206.544,312.031 204.5,311.5 Z"/></g>
<g><path style="opacity:1" fill="#b12e35" d="M 277.5,312.5 C 275.002,314.666 272.002,315.666 268.5,315.5C 268.5,311.5 268.5,307.5 268.5,303.5C 269.167,303.5 269.833,303.5 270.5,303.5C 272.861,303.326 275.194,302.993 277.5,302.5C 277.5,305.833 277.5,309.167 277.5,312.5 Z"/></g>
<g><path style="opacity:1" fill="#4c383d" d="M 240.5,299.5 C 241.779,298.032 243.446,297.365 245.5,297.5C 249.594,295.827 253.427,296.16 257,298.5C 257.5,308.828 257.666,319.161 257.5,329.5C 251.833,329.5 246.167,329.5 240.5,329.5C 240.5,319.5 240.5,309.5 240.5,299.5 Z"/></g>
<g><path style="opacity:1" fill="#5a233c" d="M 249.5,289.5 C 249.389,290.117 249.056,290.617 248.5,291C 250.382,291.198 252.048,291.698 253.5,292.5C 249.399,292.202 246.733,293.868 245.5,297.5C 243.446,297.365 241.779,298.032 240.5,299.5C 241.386,294.28 244.386,290.947 249.5,289.5 Z"/></g>
<g><path style="opacity:1" fill="#121839" d="M 115.5,323.5 C 116.514,324.674 117.847,325.34 119.5,325.5C 119.833,325.5 120.167,325.5 120.5,325.5C 120.281,326.675 120.614,327.675 121.5,328.5C 124.319,328.258 127.319,328.258 130.5,328.5C 130.611,329.117 130.944,329.617 131.5,330C 135.81,330.007 139.81,330.841 143.5,332.5C 143.67,333.822 143.337,334.989 142.5,336C 139.57,336.606 136.737,337.44 134,338.5C 130.99,344.53 127.49,350.196 123.5,355.5C 122.566,354.432 122.232,353.099 122.5,351.5C 119.927,351.852 117.594,351.352 115.5,350C 118.892,348.217 122.392,348.051 126,349.5C 127.915,346.765 129.082,343.765 129.5,340.5C 130.821,336.679 133.488,334.512 137.5,334C 128.316,332.328 119.483,329.494 111,325.5C 94.4446,335.018 76.6112,339.018 57.5,337.5C 57.5,336.5 57.5,335.5 57.5,334.5C 63.69,334.823 69.69,334.49 75.5,333.5C 88.2932,332.057 99.9599,327.724 110.5,320.5C 112.396,321.275 114.063,322.275 115.5,323.5 Z"/></g>
<g><path style="opacity:1" fill="#121738" d="M 359.5,325.5 C 360.947,326.885 361.947,326.552 362.5,324.5C 362.999,321.611 364.499,320.944 367,322.5C 367.483,323.448 367.649,324.448 367.5,325.5C 367.229,327.38 367.896,328.713 369.5,329.5C 378.221,330.366 386.555,329.033 394.5,325.5C 404.666,333.108 415.999,337.775 428.5,339.5C 434.645,340.49 440.978,340.823 447.5,340.5C 447.5,341.5 447.5,342.5 447.5,343.5C 445.833,343.5 444.167,343.5 442.5,343.5C 424.466,344.229 407.8,339.896 392.5,330.5C 385.697,332.71 378.697,333.71 371.5,333.5C 371.929,337.024 373.429,340.024 376,342.5C 376.667,343.5 376.667,344.5 376,345.5C 372.888,346.573 369.721,346.573 366.5,345.5C 366.297,347.39 366.963,348.89 368.5,350C 372.145,350.719 375.812,351.219 379.5,351.5C 378.29,355.228 377.123,358.895 376,362.5C 389.38,372.128 403.88,374.128 419.5,368.5C 419.5,369.5 419.5,370.5 419.5,371.5C 414.094,372.649 408.76,373.649 403.5,374.5C 401.167,374.5 398.833,374.5 396.5,374.5C 381.47,372.584 370.637,364.917 364,351.5C 363.333,348.833 363.333,346.167 364,343.5C 366.782,342.654 369.616,342.487 372.5,343C 369.347,338.528 366.847,333.694 365,328.5C 362.125,335.278 357.625,340.611 351.5,344.5C 349.744,343.448 349.077,341.781 349.5,339.5C 350.222,339.918 350.722,340.584 351,341.5C 354.667,338.663 357.5,335.163 359.5,331C 354.762,327.969 350.429,324.469 346.5,320.5C 346.617,318.516 345.95,316.85 344.5,315.5C 343.158,316.902 342.324,316.569 342,314.5C 340.708,315.791 339.542,315.791 338.5,314.5C 340.011,312.559 342.011,312.059 344.5,313C 348.764,318.102 353.764,322.269 359.5,325.5 Z"/></g>
<g><path style="opacity:0.125" fill="#84929f" d="M 367.5,325.5 C 368.674,326.514 369.34,327.847 369.5,329.5C 367.896,328.713 367.229,327.38 367.5,325.5 Z"/></g>
<g><path style="opacity:0.357" fill="#8690ae" d="M 362.5,324.5 C 361.947,326.552 360.947,326.885 359.5,325.5C 360.609,325.443 361.609,325.11 362.5,324.5 Z"/></g>
<g><path style="opacity:1" fill="#ada6a5" d="M 199.5,309.5 C 198.031,312.102 198.698,314.269 201.5,316C 207.677,318.919 213.344,322.586 218.5,327C 224.101,328.217 229.768,328.717 235.5,328.5C 235.5,329.833 235.5,331.167 235.5,332.5C 246.346,332.828 257.013,332.494 267.5,331.5C 268.404,330.791 268.737,329.791 268.5,328.5C 273.16,327.67 277.493,326.003 281.5,323.5C 279.047,330.956 274.38,336.623 267.5,340.5C 267.586,338.323 268.253,336.323 269.5,334.5C 268.167,334.167 266.833,333.833 265.5,333.5C 254.812,334.445 244.312,334.778 234,334.5C 233.626,333.584 233.126,332.75 232.5,332C 227.453,330.988 222.453,329.822 217.5,328.5C 216.614,329.325 216.281,330.325 216.5,331.5C 213.336,331.566 210.502,332.566 208,334.5C 205.774,334.022 203.608,333.355 201.5,332.5C 202.833,331.167 202.833,329.833 201.5,328.5C 199.609,327.689 198.276,326.356 197.5,324.5C 199.538,323.246 201.204,321.579 202.5,319.5C 200.435,319.738 198.435,319.238 196.5,318C 197.38,316.644 197.714,315.144 197.5,313.5C 192.557,313.116 191.557,310.949 194.5,307C 193.552,306.517 192.552,306.351 191.5,306.5C 191.719,307.675 191.386,308.675 190.5,309.5C 186.577,305.607 182.577,305.607 178.5,309.5C 177.914,309.291 177.414,308.957 177,308.5C 172.138,309.087 167.304,309.92 162.5,311C 160.47,313.77 159.137,317.27 158.5,321.5C 154.458,324.556 150.458,327.556 146.5,330.5C 145.167,330.5 144.5,329.833 144.5,328.5C 144.414,327.504 144.748,326.671 145.5,326C 147.764,325.764 149.931,325.264 152,324.5C 154.295,321.263 156.461,317.93 158.5,314.5C 158.799,311.358 160.466,309.191 163.5,308C 169.173,309.946 173.84,308.613 177.5,304C 183.705,303.968 189.705,303.134 195.5,301.5C 196.772,301.57 197.938,301.903 199,302.5C 199.497,304.81 199.663,307.143 199.5,309.5 Z"/></g>
<g><path style="opacity:1" fill="#32749e" d="M 346.5,320.5 C 350.429,324.469 354.762,327.969 359.5,331C 357.5,335.163 354.667,338.663 351,341.5C 350.722,340.584 350.222,339.918 349.5,339.5C 348.522,337.188 346.855,335.522 344.5,334.5C 343.381,328.764 341.048,323.597 337.5,319C 340.906,316.847 343.906,317.347 346.5,320.5 Z"/></g>
<g><path style="opacity:0.182" fill="#8191a8" d="M 75.5,333.5 C 69.69,334.49 63.69,334.823 57.5,334.5C 57.5,335.5 57.5,336.5 57.5,337.5C 56.5655,336.432 56.2322,335.099 56.5,333.5C 62.8333,333.5 69.1667,333.5 75.5,333.5 Z"/></g>
<g><path style="opacity:1" fill="#978d84" d="M 144.5,328.5 C 144.5,329.833 145.167,330.5 146.5,330.5C 150.513,332.833 154.846,334.666 159.5,336C 161.022,338.305 163.022,339.805 165.5,340.5C 164.152,341.601 162.652,342.601 161,343.5C 158.938,347.395 157.105,351.395 155.5,355.5C 145.277,357.756 134.944,358.09 124.5,356.5C 123.833,356.5 123.5,356.167 123.5,355.5C 127.49,350.196 130.99,344.53 134,338.5C 136.737,337.44 139.57,336.606 142.5,336C 143.337,334.989 143.67,333.822 143.5,332.5C 143.232,330.901 143.566,329.568 144.5,328.5 Z"/></g>
<g><path style="opacity:1" fill="#2f77a1" d="M 129.5,340.5 C 128.527,342.25 127.193,343.75 125.5,345C 119.558,346.406 113.558,346.739 107.5,346C 105.833,344.833 104.167,343.667 102.5,342.5C 96.1637,349.197 88.497,353.197 79.5,354.5C 79.4142,353.504 79.7476,352.671 80.5,352C 77.1562,351.43 76.8228,350.264 79.5,348.5C 73.7441,347.205 68.0775,347.538 62.5,349.5C 61.1667,348.5 61.1667,347.5 62.5,346.5C 64.1026,345.207 65.7693,344.207 67.5,343.5C 69.1947,342.989 70.8614,342.322 72.5,341.5C 72.2907,340.914 71.9574,340.414 71.5,340C 66.7611,338.949 62.0944,338.115 57.5,337.5C 76.6112,339.018 94.4446,335.018 111,325.5C 119.483,329.494 128.316,332.328 137.5,334C 133.488,334.512 130.821,336.679 129.5,340.5 Z"/></g>
<g><path style="opacity:1" fill="#e9f1f5" d="M 202.5,345.5 C 198.651,345.051 195.151,343.717 192,341.5C 187.211,345.286 182.711,349.453 178.5,354C 166.989,361.869 154.655,364.369 141.5,361.5C 143.415,361.784 145.081,361.451 146.5,360.5C 159.089,359.034 170.423,354.534 180.5,347C 184.321,342.203 186.154,336.703 186,330.5C 191.723,335.611 197.89,340.111 204.5,344C 203.956,344.717 203.289,345.217 202.5,345.5 Z"/></g>
<g><path style="opacity:0.263" fill="#6d7b92" d="M 428.5,339.5 C 435.167,339.5 441.833,339.5 448.5,339.5C 448.768,341.099 448.434,342.432 447.5,343.5C 447.5,342.5 447.5,341.5 447.5,340.5C 440.978,340.823 434.645,340.49 428.5,339.5 Z"/></g>
<g><path style="opacity:1" fill="#eaf1f5" d="M 396.5,374.5 C 396.611,375.117 396.944,375.617 397.5,376C 381.643,376.655 369.143,370.488 360,357.5C 359.007,353.558 358.34,349.558 358,345.5C 349.356,351.942 339.856,354.942 329.5,354.5C 337.883,353.27 345.217,349.937 351.5,344.5C 357.625,340.611 362.125,335.278 365,328.5C 366.847,333.694 369.347,338.528 372.5,343C 369.616,342.487 366.782,342.654 364,343.5C 363.333,346.167 363.333,348.833 364,351.5C 370.637,364.917 381.47,372.584 396.5,374.5 Z"/></g>
<g><path style="opacity:1" fill="#d8f0f7" d="M 412.5,348.5 C 416.298,349.483 420.298,349.817 424.5,349.5C 424.5,350.5 424.5,351.5 424.5,352.5C 415.182,354.011 406.849,352.011 399.5,346.5C 397.533,344.696 395.699,342.696 394,340.5C 392.221,338.077 391.554,335.41 392,332.5C 396.429,341.116 403.263,346.449 412.5,348.5 Z"/></g>
<g><path style="opacity:1" fill="#786f6c" d="M 181.5,339.5 C 175.149,348.354 166.483,353.687 155.5,355.5C 157.105,351.395 158.938,347.395 161,343.5C 162.652,342.601 164.152,341.601 165.5,340.5C 170.87,340.608 176.203,340.275 181.5,339.5 Z"/></g>
<g><path style="opacity:1" fill="#06123e" d="M 129.5,340.5 C 129.082,343.765 127.915,346.765 126,349.5C 122.392,348.051 118.892,348.217 115.5,350C 117.594,351.352 119.927,351.852 122.5,351.5C 122.232,353.099 122.566,354.432 123.5,355.5C 123.5,356.167 123.833,356.5 124.5,356.5C 124.611,357.117 124.944,357.617 125.5,358C 128.833,358.333 132.167,358.667 135.5,359C 136.056,359.383 136.389,359.883 136.5,360.5C 131.126,360.477 125.793,359.977 120.5,359C 119.91,357.491 119.244,355.991 118.5,354.5C 113.006,352.835 107.839,350.502 103,347.5C 92.5922,355.616 80.7588,359.616 67.5,359.5C 67.5,358.167 67.5,356.833 67.5,355.5C 71.7016,355.817 75.7016,355.483 79.5,354.5C 88.497,353.197 96.1637,349.197 102.5,342.5C 104.167,343.667 105.833,344.833 107.5,346C 113.558,346.739 119.558,346.406 125.5,345C 127.193,343.75 128.527,342.25 129.5,340.5 Z"/></g>
<g><path style="opacity:1" fill="#3078a1" d="M 442.5,343.5 C 439.686,344.165 436.686,344.498 433.5,344.5C 424.656,344.052 415.989,343.219 407.5,342C 410.646,342.11 411.646,343.443 410.5,346C 412.256,346.202 413.922,346.702 415.5,347.5C 414.675,348.386 413.675,348.719 412.5,348.5C 403.263,346.449 396.429,341.116 392,332.5C 391.554,335.41 392.221,338.077 394,340.5C 395.699,342.696 397.533,344.696 399.5,346.5C 398.504,346.586 397.671,346.252 397,345.5C 396.694,347.951 397.194,350.284 398.5,352.5C 404.039,354.427 409.706,356.093 415.5,357.5C 415.5,358.833 415.5,360.167 415.5,361.5C 420.19,362.346 424.19,364.512 427.5,368C 427.167,368.5 426.833,369 426.5,369.5C 424.568,370.145 423.401,371.479 423,373.5C 422.667,373.167 422.333,372.833 422,372.5C 419.092,372.908 416.592,374.075 414.5,376C 415.624,376.249 416.624,376.749 417.5,377.5C 417,377.833 416.5,378.167 416,378.5C 414.445,377.622 412.779,377.622 411,378.5C 409.159,377.438 407.326,376.438 405.5,375.5C 405.158,374.662 404.492,374.328 403.5,374.5C 408.76,373.649 414.094,372.649 419.5,371.5C 419.5,370.5 419.5,369.5 419.5,368.5C 403.88,374.128 389.38,372.128 376,362.5C 377.123,358.895 378.29,355.228 379.5,351.5C 375.812,351.219 372.145,350.719 368.5,350C 366.963,348.89 366.297,347.39 366.5,345.5C 369.721,346.573 372.888,346.573 376,345.5C 376.667,344.5 376.667,343.5 376,342.5C 373.429,340.024 371.929,337.024 371.5,333.5C 378.697,333.71 385.697,332.71 392.5,330.5C 407.8,339.896 424.466,344.229 442.5,343.5 Z"/></g>
<g><path style="opacity:1" fill="#ebf6f9" d="M 306.5,339.5 C 303.482,339.665 300.482,339.498 297.5,339C 295.783,337.441 293.783,336.608 291.5,336.5C 288.984,346.671 291.984,354.504 300.5,360C 304.981,361.954 309.648,363.287 314.5,364C 296.137,366.284 285.471,358.118 282.5,339.5C 264.016,356.366 242.35,363.866 217.5,362C 219.708,361.809 221.708,361.309 223.5,360.5C 245.211,359.211 263.711,350.878 279,335.5C 281.466,332.872 283.299,329.872 284.5,326.5C 291.818,331.992 299.818,336.159 308.5,339C 307.906,339.464 307.239,339.631 306.5,339.5 Z"/></g>
<g><path style="opacity:1" fill="#171630" d="M 272.5,180.5 C 275.46,218.824 278.46,257.157 281.5,295.5C 287.202,295.921 292.869,296.588 298.5,297.5C 299.287,299.104 300.62,299.771 302.5,299.5C 305.539,300.01 308.539,300.677 311.5,301.5C 313.438,303.163 315.772,303.829 318.5,303.5C 320.262,303.357 321.929,303.691 323.5,304.5C 326.199,307.4 328.533,310.567 330.5,314C 333.146,314.497 335.813,314.664 338.5,314.5C 339.542,315.791 340.708,315.791 342,314.5C 342.324,316.569 343.158,316.902 344.5,315.5C 345.95,316.85 346.617,318.516 346.5,320.5C 343.906,317.347 340.906,316.847 337.5,319C 341.048,323.597 343.381,328.764 344.5,334.5C 346.855,335.522 348.522,337.188 349.5,339.5C 349.077,341.781 349.744,343.448 351.5,344.5C 345.217,349.937 337.883,353.27 329.5,354.5C 323.441,354.746 317.441,354.413 311.5,353.5C 307.992,351.809 304.825,349.476 302,346.5C 300.441,344.783 299.608,342.783 299.5,340.5C 302.059,340.802 304.393,340.468 306.5,339.5C 307.239,339.631 307.906,339.464 308.5,339C 299.818,336.159 291.818,331.992 284.5,326.5C 283.299,329.872 281.466,332.872 279,335.5C 263.711,350.878 245.211,359.211 223.5,360.5C 218.167,360.5 212.833,360.5 207.5,360.5C 206.596,359.791 206.263,358.791 206.5,357.5C 209.85,357.665 213.183,357.498 216.5,357C 211.178,355.164 206.511,352.331 202.5,348.5C 202.5,347.5 202.5,346.5 202.5,345.5C 203.289,345.217 203.956,344.717 204.5,344C 197.89,340.111 191.723,335.611 186,330.5C 186.154,336.703 184.321,342.203 180.5,347C 170.423,354.534 159.089,359.034 146.5,360.5C 143.167,360.5 139.833,360.5 136.5,360.5C 136.389,359.883 136.056,359.383 135.5,359C 132.167,358.667 128.833,358.333 125.5,358C 124.944,357.617 124.611,357.117 124.5,356.5C 134.944,358.09 145.277,357.756 155.5,355.5C 166.483,353.687 175.149,348.354 181.5,339.5C 182.445,334.595 182.779,329.595 182.5,324.5C 184.433,324.729 186.1,325.562 187.5,327C 192.919,332.939 199.252,337.439 206.5,340.5C 208.385,342.053 209.385,344.053 209.5,346.5C 207.645,346.272 206.812,346.939 207,348.5C 218.94,357.253 231.773,358.753 245.5,353C 251.786,351.19 257.453,348.357 262.5,344.5C 264.349,343.407 266.016,342.074 267.5,340.5C 274.38,336.623 279.047,330.956 281.5,323.5C 282.568,322.566 283.901,322.232 285.5,322.5C 290.234,326.75 295.567,330.083 301.5,332.5C 305.291,334.049 309.124,335.716 313,337.5C 313.711,339.367 313.211,340.867 311.5,342C 308.774,342.182 306.107,342.682 303.5,343.5C 306.917,347.543 311.25,350.043 316.5,351C 327.268,352.808 337.268,350.808 346.5,345C 347.672,343.132 347.505,341.298 346,339.5C 343.867,338.745 342.2,337.412 341,335.5C 340.599,330.435 338.765,326.101 335.5,322.5C 333.572,320.526 331.239,319.026 328.5,318C 325.963,315.094 323.796,311.927 322,308.5C 321.329,307.748 320.496,307.414 319.5,307.5C 311.403,305.974 303.403,303.808 295.5,301C 291.627,300.73 287.794,300.23 284,299.5C 283.235,299.57 282.735,299.903 282.5,300.5C 281.686,302.631 281.186,304.964 281,307.5C 280.802,305.618 280.302,303.952 279.5,302.5C 279.167,301.5 278.5,300.833 277.5,300.5C 277.574,289.762 276.908,279.095 275.5,268.5C 274.692,257.8 273.692,247.133 272.5,236.5C 271.954,224.826 271.287,213.159 270.5,201.5C 271.134,194.4 271.801,187.4 272.5,180.5 Z"/></g>
<g><path style="opacity:1" fill="#79716c" d="M 206.5,340.5 C 221.363,341.903 236.197,343.903 251,346.5C 254.785,345.515 258.618,344.849 262.5,344.5C 257.453,348.357 251.786,351.19 245.5,353C 231.773,358.753 218.94,357.253 207,348.5C 206.812,346.939 207.645,346.272 209.5,346.5C 209.385,344.053 208.385,342.053 206.5,340.5 Z"/></g>
<g><path style="opacity:1" fill="#7b736d" d="M 335.5,322.5 C 338.765,326.101 340.599,330.435 341,335.5C 342.2,337.412 343.867,338.745 346,339.5C 347.505,341.298 347.672,343.132 346.5,345C 337.268,350.808 327.268,352.808 316.5,351C 311.25,350.043 306.917,347.543 303.5,343.5C 306.107,342.682 308.774,342.182 311.5,342C 313.211,340.867 313.711,339.367 313,337.5C 309.124,335.716 305.291,334.049 301.5,332.5C 307.832,332.056 314.165,331.556 320.5,331C 325.595,328.125 330.595,325.292 335.5,322.5 Z"/></g>
<g><path style="opacity:1" fill="#307ca3" d="M 67.5,343.5 C 65.7693,344.207 64.1026,345.207 62.5,346.5C 61.1667,347.5 61.1667,348.5 62.5,349.5C 68.0775,347.538 73.7441,347.205 79.5,348.5C 76.8228,350.264 77.1562,351.43 80.5,352C 79.7476,352.671 79.4142,353.504 79.5,354.5C 75.7016,355.483 71.7016,355.817 67.5,355.5C 67.5,356.833 67.5,358.167 67.5,359.5C 80.7588,359.616 92.5922,355.616 103,347.5C 107.839,350.502 113.006,352.835 118.5,354.5C 119.244,355.991 119.91,357.491 120.5,359C 125.793,359.977 131.126,360.477 136.5,360.5C 139.833,360.5 143.167,360.5 146.5,360.5C 145.081,361.451 143.415,361.784 141.5,361.5C 135.107,361.793 128.773,361.46 122.5,360.5C 115.888,364.131 109.888,368.464 104.5,373.5C 108.091,375.974 111.758,378.474 115.5,381C 111.58,382.46 107.58,383.793 103.5,385C 105.874,384.598 108.207,384.764 110.5,385.5C 111.466,387.396 111.799,389.396 111.5,391.5C 112.5,391.5 113.5,391.5 114.5,391.5C 114.66,393.199 114.494,394.866 114,396.5C 113.329,397.252 112.496,397.586 111.5,397.5C 113.957,395.001 113.291,393.168 109.5,392C 93.4226,389.823 77.4226,387.157 61.5,384C 43.6102,378.996 43.2769,373.663 60.5,368C 66.9563,365.789 66.9563,363.789 60.5,362C 54.048,361.203 47.7147,359.869 41.5,358C 37.8184,356.68 36.3184,354.18 37,350.5C 46.5104,345.695 56.677,343.362 67.5,343.5 Z"/></g>
<g><path style="opacity:1" fill="#46a7c7" d="M 306.5,339.5 C 304.393,340.468 302.059,340.802 299.5,340.5C 299.608,342.783 300.441,344.783 302,346.5C 304.825,349.476 307.992,351.809 311.5,353.5C 308.814,355.352 305.814,357.019 302.5,358.5C 306.98,360.454 311.647,361.454 316.5,361.5C 316.389,366.066 314.056,368.733 309.5,369.5C 307.801,369.66 306.134,369.494 304.5,369C 298.869,366.52 293.202,364.02 287.5,361.5C 283.84,363.49 280.173,365.49 276.5,367.5C 275.833,367.5 275.167,367.5 274.5,367.5C 269.612,366.053 265.279,363.553 261.5,360C 263.833,359.667 266.167,359.333 268.5,359C 267.639,356.679 268.639,355.513 271.5,355.5C 271.958,349.338 270.625,349.005 267.5,354.5C 258.512,358.39 249.179,361.556 239.5,364C 228.354,365.52 217.687,364.353 207.5,360.5C 212.833,360.5 218.167,360.5 223.5,360.5C 221.708,361.309 219.708,361.809 217.5,362C 242.35,363.866 264.016,356.366 282.5,339.5C 285.471,358.118 296.137,366.284 314.5,364C 309.648,363.287 304.981,361.954 300.5,360C 291.984,354.504 288.984,346.671 291.5,336.5C 293.783,336.608 295.783,337.441 297.5,339C 300.482,339.498 303.482,339.665 306.5,339.5 Z"/></g>
<g><path style="opacity:1" fill="#40a7ca" d="M 396.5,374.5 C 398.833,374.5 401.167,374.5 403.5,374.5C 404.492,374.328 405.158,374.662 405.5,375.5C 396.848,378.888 387.848,380.888 378.5,381.5C 363.54,379.289 348.874,376.122 334.5,372C 326.833,371.667 319.167,371.333 311.5,371C 310.584,370.722 309.918,370.222 309.5,369.5C 314.056,368.733 316.389,366.066 316.5,361.5C 311.647,361.454 306.98,360.454 302.5,358.5C 305.814,357.019 308.814,355.352 311.5,353.5C 317.441,354.413 323.441,354.746 329.5,354.5C 339.856,354.942 349.356,351.942 358,345.5C 358.34,349.558 359.007,353.558 360,357.5C 369.143,370.488 381.643,376.655 397.5,376C 396.944,375.617 396.611,375.117 396.5,374.5 Z"/></g>
<g><path style="opacity:1" fill="#3ca7cb" d="M 202.5,348.5 C 206.511,352.331 211.178,355.164 216.5,357C 213.183,357.498 209.85,357.665 206.5,357.5C 206.263,358.791 206.596,359.791 207.5,360.5C 217.687,364.353 228.354,365.52 239.5,364C 249.179,361.556 258.512,358.39 267.5,354.5C 270.625,349.005 271.958,349.338 271.5,355.5C 268.639,355.513 267.639,356.679 268.5,359C 266.167,359.333 263.833,359.667 261.5,360C 265.279,363.553 269.612,366.053 274.5,367.5C 257.875,376.044 240.209,378.544 221.5,375C 213.388,372.442 205.388,369.609 197.5,366.5C 195.484,367.178 193.484,367.844 191.5,368.5C 191.5,366.5 191.5,364.5 191.5,362.5C 191.5,362.167 191.5,361.833 191.5,361.5C 192.749,360.222 194.249,359.222 196,358.5C 196.483,357.552 196.649,356.552 196.5,355.5C 200.339,355.388 200.339,354.721 196.5,353.5C 194.304,357.313 191.637,357.98 188.5,355.5C 191.003,352.241 194.336,350.741 198.5,351C 197.5,350.5 196.5,350 195.5,349.5C 194.3,347.893 194.8,346.893 197,346.5C 198.9,347.077 200.733,347.744 202.5,348.5 Z"/></g>
<g><path style="opacity:1" fill="#c5f2fa" d="M 191.5,361.5 C 191.5,361.833 191.5,362.167 191.5,362.5C 189.027,365.804 186.027,368.638 182.5,371C 174.129,374.763 165.463,376.597 156.5,376.5C 169.566,374.38 181.232,369.38 191.5,361.5 Z"/></g>
<g><path style="opacity:1" fill="#43a7c9" d="M 202.5,345.5 C 202.5,346.5 202.5,347.5 202.5,348.5C 200.733,347.744 198.9,347.077 197,346.5C 194.8,346.893 194.3,347.893 195.5,349.5C 196.5,350 197.5,350.5 198.5,351C 194.336,350.741 191.003,352.241 188.5,355.5C 191.637,357.98 194.304,357.313 196.5,353.5C 200.339,354.721 200.339,355.388 196.5,355.5C 196.649,356.552 196.483,357.552 196,358.5C 194.249,359.222 192.749,360.222 191.5,361.5C 181.232,369.38 169.566,374.38 156.5,376.5C 165.463,376.597 174.129,374.763 182.5,371C 186.027,368.638 189.027,365.804 191.5,362.5C 191.5,364.5 191.5,366.5 191.5,368.5C 188.01,371.415 184.01,373.582 179.5,375C 160.557,380.587 141.223,381.92 121.5,379C 115.623,377.723 109.956,375.89 104.5,373.5C 109.888,368.464 115.888,364.131 122.5,360.5C 128.773,361.46 135.107,361.793 141.5,361.5C 154.655,364.369 166.989,361.869 178.5,354C 182.711,349.453 187.211,345.286 192,341.5C 195.151,343.717 198.651,345.051 202.5,345.5 Z"/></g>
<g><path style="opacity:1" fill="#2d7aa3" d="M 442.5,343.5 C 444.167,343.5 445.833,343.5 447.5,343.5C 447.082,344.222 446.416,344.722 445.5,345C 448.907,345.853 451.24,347.853 452.5,351C 450.034,354.45 446.701,356.783 442.5,358C 436.911,358.81 431.577,360.31 426.5,362.5C 426.977,363.478 427.643,364.311 428.5,365C 431.859,366.383 435.193,367.716 438.5,369C 440.837,370.798 441.503,372.965 440.5,375.5C 437.495,377.671 434.161,379.171 430.5,380C 422.786,381.482 415.119,383.149 407.5,385C 405.627,385.953 405.294,387.12 406.5,388.5C 405.046,389.52 404.713,390.687 405.5,392C 408.424,392.988 411.424,393.654 414.5,394C 415.451,394.718 415.617,395.551 415,396.5C 412.018,397.177 409.185,397.177 406.5,396.5C 404.465,395.403 403.132,393.737 402.5,391.5C 400.04,392.16 399.374,393.494 400.5,395.5C 404.775,399.57 409.775,400.57 415.5,398.5C 416.774,399.359 416.608,400.026 415,400.5C 409.116,401.546 403.283,402.713 397.5,404C 398.167,404.333 398.833,404.667 399.5,405C 396.451,406.057 393.451,406.224 390.5,405.5C 390.709,404.914 391.043,404.414 391.5,404C 389.951,404.522 388.451,404.355 387,403.5C 386.5,403.667 386,403.833 385.5,404C 386.328,404.915 387.328,405.581 388.5,406C 376.187,407.045 363.854,407.545 351.5,407.5C 351.762,406.022 351.429,404.689 350.5,403.5C 347.703,405.876 344.369,407.042 340.5,407C 341.051,408.398 341.384,409.732 341.5,411C 340.551,411.617 339.718,411.451 339,410.5C 339.263,411.951 339.096,413.284 338.5,414.5C 337.702,414.043 337.369,413.376 337.5,412.5C 337.007,410.51 335.84,410.51 334,412.5C 330.243,409.064 325.743,407.564 320.5,408C 321.737,407.768 322.737,407.268 323.5,406.5C 326.055,405.539 328.388,404.206 330.5,402.5C 335.35,403.842 340.183,404.175 345,403.5C 345.617,402.551 345.451,401.718 344.5,401C 332.729,400.299 322.063,396.633 312.5,390C 306.427,384.39 307.427,382.557 315.5,384.5C 317,384.547 318,383.881 318.5,382.5C 308.047,379.606 298.047,375.606 288.5,370.5C 273.549,382.927 256.215,388.594 236.5,387.5C 236.5,388.833 236.5,390.167 236.5,391.5C 235.053,390.866 234.387,389.699 234.5,388C 235.216,385.208 235.549,382.374 235.5,379.5C 239.555,379.824 243.555,379.491 247.5,378.5C 250.128,376.367 252.961,376.034 256,377.5C 258.305,375.07 261.138,374.07 264.5,374.5C 264.051,376.977 264.717,378.977 266.5,380.5C 269.273,379.532 271.773,378.199 274,376.5C 276.306,377.582 277.806,376.748 278.5,374C 277.783,372.469 276.783,371.136 275.5,370C 275.743,369.098 276.077,368.265 276.5,367.5C 280.173,365.49 283.84,363.49 287.5,361.5C 293.202,364.02 298.869,366.52 304.5,369C 306.134,369.494 307.801,369.66 309.5,369.5C 309.918,370.222 310.584,370.722 311.5,371C 319.167,371.333 326.833,371.667 334.5,372C 348.874,376.122 363.54,379.289 378.5,381.5C 387.848,380.888 396.848,378.888 405.5,375.5C 407.326,376.438 409.159,377.438 411,378.5C 412.779,377.622 414.445,377.622 416,378.5C 416.5,378.167 417,377.833 417.5,377.5C 416.624,376.749 415.624,376.249 414.5,376C 416.592,374.075 419.092,372.908 422,372.5C 422.333,372.833 422.667,373.167 423,373.5C 423.401,371.479 424.568,370.145 426.5,369.5C 426.833,369 427.167,368.5 427.5,368C 424.19,364.512 420.19,362.346 415.5,361.5C 415.5,360.167 415.5,358.833 415.5,357.5C 409.706,356.093 404.039,354.427 398.5,352.5C 397.194,350.284 396.694,347.951 397,345.5C 397.671,346.252 398.504,346.586 399.5,346.5C 406.849,352.011 415.182,354.011 424.5,352.5C 424.5,351.5 424.5,350.5 424.5,349.5C 420.298,349.817 416.298,349.483 412.5,348.5C 413.675,348.719 414.675,348.386 415.5,347.5C 413.922,346.702 412.256,346.202 410.5,346C 411.646,343.443 410.646,342.11 407.5,342C 415.989,343.219 424.656,344.052 433.5,344.5C 436.686,344.498 439.686,344.165 442.5,343.5 Z"/></g>
<g><path style="opacity:1" fill="#2d7ca4" d="M 274.5,367.5 C 275.167,367.5 275.833,367.5 276.5,367.5C 276.077,368.265 275.743,369.098 275.5,370C 276.783,371.136 277.783,372.469 278.5,374C 277.806,376.748 276.306,377.582 274,376.5C 271.773,378.199 269.273,379.532 266.5,380.5C 264.717,378.977 264.051,376.977 264.5,374.5C 261.138,374.07 258.305,375.07 256,377.5C 252.961,376.034 250.128,376.367 247.5,378.5C 243.555,379.491 239.555,379.824 235.5,379.5C 235.549,382.374 235.216,385.208 234.5,388C 234.387,389.699 235.053,390.866 236.5,391.5C 242.896,391.378 249.229,390.711 255.5,389.5C 250.943,390.765 246.443,392.431 242,394.5C 240.177,394.113 238.343,393.779 236.5,393.5C 219.921,395.848 203.255,397.014 186.5,397C 187.328,397.915 188.328,398.581 189.5,399C 205.77,403.895 222.436,406.061 239.5,405.5C 240.152,406.725 241.319,407.392 243,407.5C 244.896,407.13 246.729,406.963 248.5,407C 247.874,407.75 247.374,408.584 247,409.5C 246.667,409.167 246.333,408.833 246,408.5C 238.892,409.382 231.725,410.215 224.5,411C 227.213,412.275 230.047,413.109 233,413.5C 234.658,413.325 235.991,412.658 237,411.5C 242.659,411.265 248.492,411.598 254.5,412.5C 246.722,413.226 239.056,414.559 231.5,416.5C 232.991,417.244 234.491,417.91 236,418.5C 237.609,417.85 239.109,418.35 240.5,420C 235.489,422.048 230.489,421.881 225.5,419.5C 224.614,420.325 224.281,421.325 224.5,422.5C 230.741,423.64 236.741,425.306 242.5,427.5C 236.03,427.72 229.697,426.886 223.5,425C 219.944,422.111 215.944,420.111 211.5,419C 180.646,420.782 149.979,419.116 119.5,414C 113.135,413.232 107.635,410.732 103,406.5C 102.333,405.167 102.333,403.833 103,402.5C 105.481,400.176 108.314,398.509 111.5,397.5C 112.496,397.586 113.329,397.252 114,396.5C 114.494,394.866 114.66,393.199 114.5,391.5C 113.5,391.5 112.5,391.5 111.5,391.5C 111.799,389.396 111.466,387.396 110.5,385.5C 108.207,384.764 105.874,384.598 103.5,385C 107.58,383.793 111.58,382.46 115.5,381C 111.758,378.474 108.091,375.974 104.5,373.5C 109.956,375.89 115.623,377.723 121.5,379C 141.223,381.92 160.557,380.587 179.5,375C 184.01,373.582 188.01,371.415 191.5,368.5C 193.484,367.844 195.484,367.178 197.5,366.5C 205.388,369.609 213.388,372.442 221.5,375C 240.209,378.544 257.875,376.044 274.5,367.5 Z"/></g>
<g><path style="opacity:1" fill="#e6fafb" d="M 287.5,375.5 C 288.043,375.56 288.376,375.893 288.5,376.5C 280.366,390.915 268.032,399.415 251.5,402C 244.167,402.667 236.833,402.667 229.5,402C 243.446,402.081 256.446,398.748 268.5,392C 271.423,389.584 273.757,386.75 275.5,383.5C 279.205,380.474 283.205,377.808 287.5,375.5 Z"/></g>
<g><path style="opacity:1" fill="#041440" d="M 330.5,402.5 C 322.752,399.459 315.419,395.626 308.5,391C 305.627,388.087 304.294,384.587 304.5,380.5C 298.936,379.09 293.603,377.09 288.5,374.5C 287.893,374.624 287.56,374.957 287.5,375.5C 283.205,377.808 279.205,380.474 275.5,383.5C 269.006,386.109 262.339,388.109 255.5,389.5C 249.229,390.711 242.896,391.378 236.5,391.5C 236.5,390.167 236.5,388.833 236.5,387.5C 256.215,388.594 273.549,382.927 288.5,370.5C 298.047,375.606 308.047,379.606 318.5,382.5C 318,383.881 317,384.547 315.5,384.5C 307.427,382.557 306.427,384.39 312.5,390C 322.063,396.633 332.729,400.299 344.5,401C 345.451,401.718 345.617,402.551 345,403.5C 340.183,404.175 335.35,403.842 330.5,402.5 Z"/></g>
<g><path style="opacity:1" fill="#4888a8" d="M 406.5,388.5 C 427.96,395.846 427.294,401.679 404.5,406C 385.22,408.329 365.887,409.996 346.5,411C 344.82,411.347 343.82,412.347 343.5,414C 345.521,415.865 347.187,418.032 348.5,420.5C 346.851,422.995 344.517,424.495 341.5,425C 312.152,429.411 282.818,430.578 253.5,428.5C 274.464,429.007 295.297,428.007 316,425.5C 324.238,426.076 332.405,425.242 340.5,423C 335.492,422.131 335.825,421.464 341.5,421C 342.833,420 342.833,419 341.5,418C 339.559,417.257 337.726,417.424 336,418.5C 333.192,417.594 330.692,416.927 328.5,416.5C 332.004,416.102 335.004,414.769 337.5,412.5C 337.369,413.376 337.702,414.043 338.5,414.5C 339.096,413.284 339.263,411.951 339,410.5C 339.718,411.451 340.551,411.617 341.5,411C 341.384,409.732 341.051,408.398 340.5,407C 344.369,407.042 347.703,405.876 350.5,403.5C 351.429,404.689 351.762,406.022 351.5,407.5C 363.854,407.545 376.187,407.045 388.5,406C 387.328,405.581 386.328,404.915 385.5,404C 386,403.833 386.5,403.667 387,403.5C 388.451,404.355 389.951,404.522 391.5,404C 391.043,404.414 390.709,404.914 390.5,405.5C 393.451,406.224 396.451,406.057 399.5,405C 398.833,404.667 398.167,404.333 397.5,404C 403.283,402.713 409.116,401.546 415,400.5C 416.608,400.026 416.774,399.359 415.5,398.5C 409.775,400.57 404.775,399.57 400.5,395.5C 399.374,393.494 400.04,392.16 402.5,391.5C 403.132,393.737 404.465,395.403 406.5,396.5C 409.185,397.177 412.018,397.177 415,396.5C 415.617,395.551 415.451,394.718 414.5,394C 411.424,393.654 408.424,392.988 405.5,392C 404.713,390.687 405.046,389.52 406.5,388.5 Z"/></g>
<g><path style="opacity:1" fill="#42a6c9" d="M 287.5,375.5 C 287.56,374.957 287.893,374.624 288.5,374.5C 293.603,377.09 298.936,379.09 304.5,380.5C 304.294,384.587 305.627,388.087 308.5,391C 315.419,395.626 322.752,399.459 330.5,402.5C 328.388,404.206 326.055,405.539 323.5,406.5C 318.195,407.442 312.861,407.609 307.5,407C 301.454,404.274 295.954,400.774 291,396.5C 274.515,402.738 257.348,405.738 239.5,405.5C 222.436,406.061 205.77,403.895 189.5,399C 188.328,398.581 187.328,397.915 186.5,397C 203.255,397.014 219.921,395.848 236.5,393.5C 238.343,393.779 240.177,394.113 242,394.5C 246.443,392.431 250.943,390.765 255.5,389.5C 262.339,388.109 269.006,386.109 275.5,383.5C 273.757,386.75 271.423,389.584 268.5,392C 256.446,398.748 243.446,402.081 229.5,402C 236.833,402.667 244.167,402.667 251.5,402C 268.032,399.415 280.366,390.915 288.5,376.5C 288.376,375.893 288.043,375.56 287.5,375.5 Z"/></g>
<g><path style="opacity:1" fill="#2b7ba4" d="M 323.5,406.5 C 322.737,407.268 321.737,407.768 320.5,408C 325.743,407.564 330.243,409.064 334,412.5C 335.84,410.51 337.007,410.51 337.5,412.5C 335.004,414.769 332.004,416.102 328.5,416.5C 330.692,416.927 333.192,417.594 336,418.5C 337.726,417.424 339.559,417.257 341.5,418C 342.833,419 342.833,420 341.5,421C 335.825,421.464 335.492,422.131 340.5,423C 332.405,425.242 324.238,426.076 316,425.5C 295.297,428.007 274.464,429.007 253.5,428.5C 249.731,428.756 246.064,428.423 242.5,427.5C 236.741,425.306 230.741,423.64 224.5,422.5C 224.281,421.325 224.614,420.325 225.5,419.5C 230.489,421.881 235.489,422.048 240.5,420C 239.109,418.35 237.609,417.85 236,418.5C 234.491,417.91 232.991,417.244 231.5,416.5C 239.056,414.559 246.722,413.226 254.5,412.5C 248.492,411.598 242.659,411.265 237,411.5C 235.991,412.658 234.658,413.325 233,413.5C 230.047,413.109 227.213,412.275 224.5,411C 231.725,410.215 238.892,409.382 246,408.5C 246.333,408.833 246.667,409.167 247,409.5C 247.374,408.584 247.874,407.75 248.5,407C 246.729,406.963 244.896,407.13 243,407.5C 241.319,407.392 240.152,406.725 239.5,405.5C 257.348,405.738 274.515,402.738 291,396.5C 295.954,400.774 301.454,404.274 307.5,407C 312.861,407.609 318.195,407.442 323.5,406.5 Z"/></g>
</svg>
